<svg width="548" height="570" viewBox="0 0 548 570" fill="none" xmlns="http://www.w3.org/2000/svg">
<path fill-rule="evenodd" clip-rule="evenodd" d="M453.398 48.4736C407.014 17.8658 351.137 0 291 0C130.285 0 0 127.599 0 285C0 442.401 130.285 570 291 570C401.735 570 498.024 509.423 547.203 420.26L480.102 385.118C444.217 452.872 373.22 499 291.5 499C173.587 499 78 402.965 78 284.5C78 166.035 173.587 70 291.5 70C335.697 70 376.757 83.4924 410.822 106.601L453.398 48.4736Z" fill="#01548A"/>
<path fill-rule="evenodd" clip-rule="evenodd" d="M453.398 48.4736C407.014 17.8658 351.137 0 291 0C130.285 0 0 127.599 0 285C0 442.401 130.285 570 291 570C401.735 570 498.024 509.423 547.203 420.26L480.102 385.118C444.217 452.872 373.22 499 291.5 499C173.587 499 78 402.965 78 284.5C78 166.035 173.587 70 291.5 70C335.697 70 376.757 83.4924 410.822 106.601L453.398 48.4736Z" fill="url(#paint0_linear)"/>
<defs>
<linearGradient id="paint0_linear" x1="273.602" y1="0" x2="273.602" y2="570" gradientUnits="userSpaceOnUse">
<stop stop-color="#01548A"/>
<stop offset="1" stop-color="#5700AD"/>
</linearGradient>
</defs>
</svg>
