<svg width="687" height="754" viewBox="0 0 687 754" fill="none" xmlns="http://www.w3.org/2000/svg">
<path fill-rule="evenodd" clip-rule="evenodd" d="M105.572 509.126C133.601 557.113 175.784 597.88 229.7 624.517C373.79 695.703 547.115 639.012 616.834 497.893C686.552 356.775 626.262 184.668 482.173 113.481C382.893 64.4329 269.733 76.0936 186.148 134.25L230.743 195.478C292.926 150.628 377.01 140.719 450.276 176.915C555.991 229.143 599.153 357.582 546.681 463.793C494.209 570.003 365.972 613.765 260.257 561.537C220.632 541.961 189.796 511.677 169.49 475.87L105.572 509.126Z" fill="#01548A"/>
<path fill-rule="evenodd" clip-rule="evenodd" d="M105.572 509.126C133.601 557.113 175.784 597.88 229.7 624.517C373.79 695.703 547.115 639.012 616.834 497.893C686.552 356.775 626.262 184.668 482.173 113.481C382.893 64.4329 269.733 76.0936 186.148 134.25L230.743 195.478C292.926 150.628 377.01 140.719 450.276 176.915C555.991 229.143 599.153 357.582 546.681 463.793C494.209 570.003 365.972 613.765 260.257 561.537C220.632 541.961 189.796 511.677 169.49 475.87L105.572 509.126Z" fill="url(#paint0_linear)"/>
<defs>
<linearGradient id="paint0_linear" x1="245.299" y1="632.223" x2="497.771" y2="121.188" gradientUnits="userSpaceOnUse">
<stop stop-color="#01548A"/>
<stop offset="1" stop-color="#5700AD"/>
</linearGradient>
</defs>
</svg>
