<svg width="153" height="103" viewBox="0 0 153 103" fill="none" xmlns="http://www.w3.org/2000/svg">
<path fill-rule="evenodd" clip-rule="evenodd" d="M0 0H152.658V102.997H0V0ZM3.10912 10.7608H149.549V99.3076H3.10912V10.7608ZM88.6099 4.91922H3.10912V7.37885H88.6099V4.91922ZM97.3154 4.91922H131.516V7.37885H97.3154V4.91922ZM149.549 2.15234H145.818V4.91943H149.549V2.15234ZM140.532 2.15234H144.263V4.91943H140.532V2.15234ZM138.978 2.15234H135.247V4.91943H138.978V2.15234Z" fill="#5700AD"/>
<path d="M26.0017 59.4924L27.5251 53.4353H28.8801L26.573 61.3601H25.4744L23.5481 55.3542L21.6731 61.3601H20.5745L18.2747 53.4353H19.6223L21.1824 59.3679L23.0281 53.4353H24.1194L26.0017 59.4924ZM37.281 59.4924L38.8044 53.4353H40.1594L37.8523 61.3601H36.7537L34.8274 55.3542L32.9524 61.3601H31.8538L29.554 53.4353H30.9016L32.4617 59.3679L34.3074 53.4353H35.3987L37.281 59.4924ZM48.5603 59.4924L50.0837 53.4353H51.4387L49.1316 61.3601H48.033L46.1067 55.3542L44.2317 61.3601H43.1331L40.8333 53.4353H42.1809L43.741 59.3679L45.5867 53.4353H46.678L48.5603 59.4924ZM51.9441 60.6497C51.9441 60.4153 52.0125 60.22 52.1492 60.0637C52.2908 59.9075 52.5007 59.8293 52.7791 59.8293C53.0574 59.8293 53.2673 59.9075 53.4089 60.0637C53.5554 60.22 53.6287 60.4153 53.6287 60.6497C53.6287 60.8743 53.5554 61.0623 53.4089 61.2136C53.2673 61.365 53.0574 61.4407 52.7791 61.4407C52.5007 61.4407 52.2908 61.365 52.1492 61.2136C52.0125 61.0623 51.9441 60.8743 51.9441 60.6497Z" fill="#5700AD"/>
<path fill-rule="evenodd" clip-rule="evenodd" d="M77.0571 42.5192C79.164 41.1058 82.0365 41.6553 83.473 43.7464C84.9095 45.8376 84.3661 48.6786 82.2593 50.092L69.4568 58.6808C67.3499 60.0942 64.4774 59.5447 63.0409 57.4536C61.6044 55.3624 62.1478 52.5214 64.2546 51.108L77.0571 42.5192ZM77.7593 43.4582C78.6328 42.8722 79.8239 43.1 80.4195 43.967L82.2241 46.5937C82.8198 47.4607 82.5945 48.6386 81.7209 49.2246C80.8474 49.8105 79.6564 49.5827 79.0607 48.7157L77.2561 46.089C76.6605 45.222 76.8857 44.0441 77.7593 43.4582ZM79.4844 50.7237L75.5256 44.9602L73.9772 45.999L77.9361 51.7625L79.4844 50.7237ZM74.8619 48.9703L64.048 56.1305L62.999 54.5826L73.813 47.4223L74.8619 48.9703ZM65.6579 58.4857L76.4718 51.3254L75.4228 49.7775L64.6089 56.9377L65.6579 58.4857Z" fill="#5700AD"/>
<path fill-rule="evenodd" clip-rule="evenodd" d="M62.0378 52.762L57.9457 60.8125L67.0364 60.1159L62.0378 52.762ZM61.3223 56.197L59.5691 59.7699L63.5798 59.5183L61.3223 56.197Z" fill="#5700AD"/>
</svg>
