<svg xmlns="http://www.w3.org/2000/svg" xmlns:xlink="http://www.w3.org/1999/xlink" viewBox="0 0 844 475.68"><defs><style>.cls-1{fill:url(#linear-gradient);}.cls-2{fill:#e6ddef;}.cls-3{fill:#718999;}.cls-4{fill:#aac9de;}.cls-5{fill:#bbd4e5;}.cls-6{fill:#55656f;}.cls-7{fill:#9a66ce;}.cls-8{fill:#ae85d8;}.cls-9{fill:#c9ade5;}.cls-10{fill:#744d9b;}.cls-11{fill:#d6e5ef;}.cls-12{fill:#c9ddea;}.cls-13{fill:#222c32;}.cls-14{fill:#435764;}.cls-15{fill:#85adc7;}.cls-16{fill:#648295;}.cls-17{fill:#01548a;}.cls-18{fill:#3476a1;}.cls-19{fill:#6798b9;}.cls-20{fill:#023456;}.cls-21{fill:#a1c3da;}.cls-22{fill:#fff;stroke:#3476a1;stroke-miterlimit:10;}.cls-23{fill:#512082;}.cls-24{fill:#a4c1d5;}.cls-25{fill:#5b778a;}.cls-26{fill:#f3f7f9;}.cls-27{fill:#7933bd;}.cls-28{fill:#af85d7;}.cls-29{fill:#fdfdfe;}.cls-30{fill:#8097a7;}.cls-31{fill:#4d728b;}</style><linearGradient id="linear-gradient" x1="2201.88" y1="337.86" x2="2581.6" y2="337.86" gradientTransform="translate(-1925.59)" gradientUnits="userSpaceOnUse"><stop offset="0.44" stop-color="#c2abd3"/><stop offset="0.59" stop-color="#665eb9"/></linearGradient></defs><title>escena-3</title><g id="Suelo"><path class="cls-1" d="M0,200v48.65L421.81,459.47c43.24,21.62,43.36,21.62,86.6,0L843.94,291.73V242.92L465,431.5Z"/><path class="cls-2" d="M32.9,221.66C-10.34,200-10.34,200,32.9,178.42L335.57,27.09c43.24-21.62,43.24-21.62,86.47,0L811.2,221.73c43.24,21.55,43.24,21.55,2.91,41.15L508.53,416.23c-39.69,19.84-43.24,21.62-86.3-.09Z"/></g><g id="Escenario"><polygon class="cls-3" points="675.64 154.17 716.46 174.58 757.28 154.17 716.46 133.76 675.64 154.17"/><polygon class="cls-4" points="757 154.17 757 167.44 716.32 187.84 675.58 167.44 675.61 154.17 716.3 174.58 757 154.17"/><polygon class="cls-5" points="750.14 171.01 744.1 216.38 716.46 230.06 686.78 215.4 682.79 171.01 716.47 187.84 750.14 171.01"/><polygon class="cls-6" points="681.25 153.93 716.43 171.52 751.61 153.93 716.43 136.34 681.25 153.93"/><path class="cls-7" d="M716.65,159s16.72-9.39,22-15.41,8.53-38.7,8.53-38.7-20.64,13.46-23.07,18.26S716.65,159,716.65,159Z"/><path class="cls-8" d="M713.25,70.26s15.44,37.48,15.44,44.39-12,44.38-12,44.38-15.48-29.86-16.46-40.38S713.25,70.26,713.25,70.26Z"/><path class="cls-9" d="M677.57,107.34s20.95,10.77,25.26,15.62S716.65,159,716.65,159s-20.91-10.61-26.39-18.93S677.57,107.34,677.57,107.34Z"/><polygon class="cls-10" points="724.68 145.42 734.19 137.91 738.91 119.16 733.1 136.8 724.68 145.42"/><polygon class="cls-10" points="714 91.5 716.47 115.35 716.33 143.61 714 114.65 714 91.5"/><polygon class="cls-10" points="686.6 119.96 693.82 139.4 709.85 149.02 694.71 137.91 686.6 119.96"/><polygon class="cls-11" points="682.79 171.01 716.47 187.84 716.46 230.06 686.78 215.4 682.79 171.01"/><polygon class="cls-12" points="716 174.58 716 187.84 675.41 167.44 675.29 154.17 716 174.58"/><polygon class="cls-13" points="523.74 214.98 523.74 219.38 528.01 221.49 573.71 198.19 573.63 194.09 528.02 217.1 523.74 214.98"/><polygon class="cls-14" points="550 205.04 547 203.97 547 183.62 550 185.17 550 205.04"/><polygon class="cls-13" points="524 193.57 524 197.34 570.38 220.41 575 218.15 575 214.83 570.46 216.83 524 193.57"/><polygon class="cls-14" points="527.64 191.52 523.88 193.57 570.36 216.99 574.84 214.83 527.64 191.52"/><polygon class="cls-14" points="569.68 192.01 523.74 214.98 527.98 217.1 573.63 194.09 569.68 192.01"/><polygon class="cls-13" points="552 203.73 549.19 205.38 549.09 183 552 184.25 552 203.73"/><polygon class="cls-13" points="570 149.75 575.05 151.37 575.09 137.88 570 135.26 570 149.75"/><polygon class="cls-14" points="559 129.63 559 143.44 571 149.75 571 135.77 559 129.63"/><polygon class="cls-15" points="585 144.07 550.09 127.03 550.23 92.37 585 108.75 585 144.07"/><polygon class="cls-16" points="550.34 92.37 585 108.75 585 144.07 588 141.94 588 106.73 554.64 89.72 550.34 92.37"/><polygon class="cls-14" points="554.74 89.72 558.13 87.98 592 104.85 592 139.95 588 141.94 588 106.73 554.74 89.72"/><polygon class="cls-15" points="589.54 157.64 548.87 178.13 508.15 157.64 549.28 137.15 589.54 157.64"/><polygon class="cls-16" points="508 157.64 548.5 178.13 589 157.64 589 164.47 548.5 184.96 508 164.47 508 157.64"/><polygon class="cls-14" points="589 164.47 589 167.93 548.5 188.7 508 168.21 508 164.47 548.5 184.96 589 164.47"/><g id="Silla_2" data-name="Silla 2"><polygon class="cls-13" points="222.95 186.87 222.94 191.26 218.68 193.38 172.97 170.08 173.06 165.98 218.66 188.99 222.95 186.87"/><polygon class="cls-14" points="197 176.93 201 175.86 201 155.51 197 157.06 197 176.93"/><polygon class="cls-13" points="222 165.46 222 169.23 175.56 192.76 171 190.58 171 186.72 175.41 188.72 222 165.46"/><polygon class="cls-14" points="218.06 163.41 222.15 165.46 175.6 188.72 171.22 186.72 218.06 163.41"/><polygon class="cls-14" points="177 163.9 222.95 186.87 218.71 188.99 173.06 165.98 177 163.9"/><polygon class="cls-13" points="195 175.94 197 177.55 197 156.22 195 156.22 195 175.94"/><polygon class="cls-13" points="175.56 120.47 171.76 122.21 171.73 110.71 175.48 106.49 175.56 120.47"/><polygon class="cls-14" points="186 101.52 186 115.33 175 121.64 175 107.66 186 101.52"/><polygon class="cls-15" points="162 115.96 196.76 98.92 196.69 64.26 162 80.64 162 115.96"/><polygon class="cls-16" points="196.51 64.26 162 80.64 162 115.96 159 113.83 159 78.62 192.28 61.61 196.51 64.26"/><polygon class="cls-14" points="192.1 61.61 188.79 59.87 155 76.74 155 111.84 159 113.83 159 78.62 192.1 61.61"/><polygon class="cls-15" points="157.5 129.53 197.56 150.02 237.85 129.53 197.41 109.04 157.5 129.53"/><polygon class="cls-16" points="238 129.53 198 150.02 158 129.53 158 136.36 198 156.85 238 136.36 238 129.53"/><polygon class="cls-14" points="158 136.36 158 139.81 198 160.59 238 140.1 238 136.36 198 156.85 158 136.36"/></g><polygon class="cls-3" points="755.76 209.56 780.02 221.69 804.28 209.56 780.02 197.43 755.76 209.56"/><polygon class="cls-4" points="804 209.56 804 217.44 779.88 229.57 755.69 217.45 755.73 209.56 779.86 221.69 804 209.56"/><polygon class="cls-5" points="800.03 219.57 796.44 246.53 780.02 254.66 762.38 245.95 760.01 219.57 780.02 229.57 800.03 219.57"/><polygon class="cls-6" points="759.09 209.42 780 219.87 800.91 209.42 780 198.96 759.09 209.42"/><path class="cls-7" d="M780.13,212.45s9.94-5.58,13.08-9.16,5.07-23,5.07-23-12.27,8-13.72,10.85S780.13,212.45,780.13,212.45Z"/><path class="cls-8" d="M778.11,159.7s9.18,22.26,9.18,26.37-7.16,26.38-7.16,26.38-9.2-17.75-9.78-24S778.11,159.7,778.11,159.7Z"/><path class="cls-9" d="M756.91,181.73s12.44,6.4,15,9.28,8.21,21.44,8.21,21.44-12.42-6.3-15.68-11.25S756.91,181.73,756.91,181.73Z"/><polygon class="cls-10" points="784.9 204.36 790.56 199.9 793.36 188.75 789.9 199.24 784.9 204.36"/><polygon class="cls-10" points="778 172.32 779.75 186.49 779.52 203.29 778 186.07 778 172.32"/><polygon class="cls-10" points="762.27 189.23 766.56 200.79 776.09 206.5 767.1 199.9 762.27 189.23"/><polygon class="cls-11" points="760.01 219.57 780.02 229.57 780.02 254.66 762.38 245.95 760.01 219.57"/><polygon class="cls-12" points="779 221.69 779 229.57 755.25 217.45 754.99 209.56 779 221.69"/></g><g id="CEO"><path class="cls-17" d="M419,264.84c0,5.36,3.37,9.71,8.5,9.71h0c5.13,0,8.5-4.35,8.5-9.71V202.36c0-5.36-3.37-9.7-8.5-9.7h0c-5.13,0-8.5,4.34-8.5,9.7Z"/><path class="cls-17" d="M439,279.37c0,5.36,4.87,9.71,10,9.71h0c5.13,0,10-4.35,10-9.71V216.9c0-5.37-4.87-9.71-10-9.71h0c-5.13,0-10,4.34-10,9.71Z"/><path class="cls-18" d="M419,205.5c0,9.15,5.61,14.72,13.68,14.72h10.49c4.38,0,15.83-6.38,15.83-17V148.74c0-9.42-5.87-18.52-17.17-18.52h-8.34c-8.88,0-14.49,8-14.49,16.36Z"/><path class="cls-19" d="M408.09,104.37a22.11,22.11,0,1,0,22.1-22.1A22.11,22.11,0,0,0,408.09,104.37Z"/><path class="cls-20" d="M450.35,103.35s-1.85-1.73-2.63-1.34l-15.05,7.53L409.13,97.77c-.73-.37-1.2-.33-1.19.61s0,3,0,3.74a2.93,2.93,0,0,0,1.44,2.1s7.23,4.2,8.09,3.89c1.07-.38,1.76-3.44,2.26-3.64a1,1,0,0,1,1,.63c.16.63.13,4.71,1,5.15l9.8,4.9c.65.57,1.1-4.37,1.1-4.37.76-.67,14.61-7.29,15.3-7.53s1.81,1.2,1.81,1.2Z"/><path class="cls-21" d="M417.29,107.22c-.35.12-8.13-3.7-8.43-4.35s-.29-4,0-4.15,10,4.87,10.05,5.28A8.81,8.81,0,0,1,417.29,107.22Z"/><path class="cls-21" d="M431,114c-.34.12-8.66-4-9-4.6s-.59-4-.29-4.23,9.76,4.69,9.83,5.1S431.31,113.85,431,114Z"/><path class="cls-22" d="M481.94,33.82c-18.15,0-32.44,11.62-32.44,26V80.16l8.33-2.75a36.65,36.65,0,0,0,23.89,8.33c18.15,0,33-11.62,33-26S500.09,33.82,481.94,33.82Z"/><path class="cls-23" d="M482.05,57.76l0-4.12H480.6a8.94,8.94,0,0,0-.7-1.85l1.21-1.33-3.05-2.76-1.09,1a9.38,9.38,0,0,0-3-1.23V46.22h-4v1.29c-2,.24-1.69.63-2.47,1.15l-.83-1-3,2.76,1.17,1.28a8.19,8.19,0,0,0-.72,1.9h-1.38v4.12h1.37a8.07,8.07,0,0,0,.72,1.92l-1.14,1.26,3.06,2.76.73-.93c.79.53.5.92,2.5,1.17v2.28h4V64a9.71,9.71,0,0,0,3-1.26l1,1,3.1-2.76-1.17-1.32a8,8,0,0,0,.71-1.86Zm-9.9,1.72a3.63,3.63,0,1,1,3.63-3.63A3.63,3.63,0,0,1,472.15,59.48Z"/><path class="cls-23" d="M485.39,71.53l.52-2.59-.92-.19a5.19,5.19,0,0,0-.21-1.25l.93-.69-1.58-2.13-.66.52a4.54,4.54,0,0,0-1.59-1.12l.25-1.26-2.24-.45-.25,1.29a5.07,5.07,0,0,0-2,.36l-.53-.74-2.33,1.34.54.95a5.45,5.45,0,0,0-.71,1.1l-.88-.17-.52,2.59.86.17a5.52,5.52,0,0,0,.21,1.3l-.87.65L475,73.34l.86-.44a5.28,5.28,0,0,0,1.7,1.11l-.21,1,2.24.45.2-1a4.64,4.64,0,0,0,1.92-.44l.42.72,2.26-1.36-.58-1a5.42,5.42,0,0,0,.67-1.08Zm-6.46-.17a2.34,2.34,0,1,1,2.74-1.83A2.34,2.34,0,0,1,478.93,71.36Z"/><path class="cls-23" d="M494,50.18a3.17,3.17,0,0,1,4.88,2.48c.06,1.88-1.81,2.47-3.23,2.92-3.13,1-3.59,3.43-2.89,6.39.44,1.88,3.33,1.08,2.89-.8-.64-2.7.48-2.45,2.57-3.31a5.69,5.69,0,0,0,3.59-4.6c.57-5.11-5.12-8-9.33-5.67-1.69.94-.17,3.54,1.52,2.59Z"/><path class="cls-23" d="M494.62,69a1.5,1.5,0,0,0,0-3,1.5,1.5,0,0,0,0,3Z"/></g><g id="CEO_2" data-name="CEO 2"><path class="cls-17" d="M307,218.35c0,5-3.7,9.09-8.5,9.09h0c-4.8,0-8.5-4.07-8.5-9.09v-58.5c0-5,3.7-9.09,8.5-9.09h0c4.8,0,8.5,4.07,8.5,9.09Z"/><path class="cls-17" d="M287,227a9.16,9.16,0,0,1-9,9.09h0a9.15,9.15,0,0,1-9-9.09V163.44c0-5,4.19-4.07,9-4.07h0a9.16,9.16,0,0,1,9,9.09Z"/><path class="cls-18" d="M307,162.79c0,8.56-6,14.43-13.55,14.43h-9.83c-4.09,0-14.62-6.62-14.62-16.56v-51c0-8.82,5.3-16.42,15.88-16.42h7.81A14.19,14.19,0,0,1,307,107.62Z"/><path class="cls-19" d="M316.47,68.1a20.7,20.7,0,1,1-20.7-20.69A20.7,20.7,0,0,1,316.47,68.1Z"/><path class="cls-22" d="M345.33.5c-18.15,0-32.83,11.62-32.83,26V46.84l8.72-2.75c6,5.12,14.56,8.33,24.09,8.33,18.15,0,32.87-11.62,32.87-26S363.48.5,345.33.5Z"/><path class="cls-23" d="M353.46,17.84a3.17,3.17,0,0,1,4.88,2.48c.06,1.89-1.8,2.47-3.23,2.92-3.12,1-3.59,3.43-2.89,6.39.44,1.88,3.33,1.08,2.89-.8-.63-2.7.48-2.45,2.57-3.31a5.72,5.72,0,0,0,3.6-4.6c.56-5.11-5.13-8-9.33-5.67-1.69.94-.18,3.54,1.51,2.59Z"/><path class="cls-23" d="M354.05,36.69a1.5,1.5,0,0,0,0-3,1.5,1.5,0,0,0,0,3Z"/><path class="cls-23" d="M336.5,13.17V40.5a1.5,1.5,0,0,0,3,0V13.17a1.5,1.5,0,0,0-3,0Z"/><path class="cls-23" d="M345.86,19.27c-2.23-4.09-6.46-6.29-11-4.59a6.73,6.73,0,0,0-3.12,9.59c2.37,3.73,8.08,2.08,11.5,3.84,3.6,1.86-2.93,4.45-4.39,4.56-2.09.16-5.09-.42-6-2.59-.73-1.76-3.63-1-2.89.8,2.82,6.78,15.21,6.46,17.17-.91,1-3.61-3.82-5.41-6.49-5.76s-7.49.09-6.78-4c.45-2.61,3-3.56,5.4-3.05,1.84.38,3.14,2,4,3.58.93,1.7,3.52.19,2.6-1.51Z"/></g><g id="Mesa"><g id="Mesa-2" data-name="Mesa"><polygon class="cls-24" points="276.44 185 514.32 303.94 585.69 268.26 347.81 149.32 276.44 185"/><polygon class="cls-25" points="585 268.26 585 339.62 513.98 375.3 513.8 303.94 585 268.26"/><polygon class="cls-25" points="278 185 278 256.36 349.36 220.68 278 185"/></g><polygon class="cls-26" points="444.95 211.15 470.95 224.15 431.95 243.65 405.95 230.65 444.95 211.15"/><polygon class="cls-27" points="427.25 231.17 419.85 227.48 412.45 231.17 419.85 234.87 427.25 231.17"/><polygon class="cls-27" points="436.67 236.05 429.27 232.35 421.88 236.05 429.27 239.75 436.67 236.05"/><polygon class="cls-27" points="445.77 221.75 438.37 218.05 430.98 221.75 438.37 225.45 445.77 221.75"/><polygon class="cls-27" points="436.67 226.3 429.27 222.6 421.88 226.3 429.27 230 436.67 226.3"/><polygon class="cls-26" points="338.54 160.91 366.85 175.07 324.39 196.3 296.08 182.14 338.54 160.91"/><path class="cls-27" d="M310.79,180.56c-1,3.05,1.86,6.76,6.43,8.3s9.12.3,10.14-2.75-1.86-6.76-6.44-8.3S311.81,177.51,310.79,180.56Z"/><path class="cls-9" d="M319.07,183.33,316,177.15a7,7,0,0,0-3.83,1.45,4.2,4.2,0,0,0-1.6,3.14Z"/><polygon class="cls-26" points="504.77 240.97 464.47 261.12 437.61 247.69 477.9 227.54 504.77 240.97"/><polygon class="cls-27" points="478.15 230.98 465.74 237.18 471.94 240.29 484.35 234.08 478.15 230.98"/><polygon class="cls-28" points="484.35 234.08 478.22 237.14 484.35 240.28 490.56 237.18 484.35 234.08"/><polygon class="cls-9" points="490.55 237.2 496.76 240.28 478.15 249.59 471.94 246.49 490.55 237.2"/><g id="Extra_CEOS" data-name="Extra CEOS"><path class="cls-17" d="M440.22,213.39l12.23-26.28-6.76-40.58c-.66-3.94,2.26-7.71,6.76-8.46s8.49,1.87,9.15,5.81l6.35,37a25.25,25.25,0,0,1-2.38,16.3l-10.73,23.05c-1.22,2.63-5.39,3.28-9.53,1.36S439,216,440.22,213.39Z"/><path class="cls-17" d="M361,185.12l29.14-20.27,25.7-30.67c5.42-3.21,9.66-1.5,9.66-1.5-5.42,4.95-6.3,9.36-6.07,22.17l-12.85,15.2a47.12,47.12,0,0,1-8.05,7.51L370.26,198.3c-2.82,2.07-7.64,1.32-10.33-2.36S358.22,187.18,361,185.12Z"/><path class="cls-17" d="M301,95.73c2.91-1.87,6.3-1.79,8.21.28l19,20.64s8.23,7.43,6.81,15l-8,34.23c-.8,3.4-4.85,5.35-9.29,4.31s-7.2-4.6-6.41-8l7.81-33.28-12.05-13v-8.62C307,100.82,301,95.73,301,95.73Z"/><path class="cls-17" d="M259.21,147.39l7.17-42.3c.61-3.69,4.34-6.14,8.55-5.44s6.95,4.24,6.34,7.93L275.2,144l24.95,12.28c2.61,1.28,3.17,5.46,1.16,9.55s-5.67,6.2-8.27,4.92l-30.32-14.92C260.19,154.63,258.33,152,259.21,147.39Z"/><polygon class="cls-29" points="288.29 66.22 285.95 66.22 284 72.03 284 79.91 286.54 85.6 292.77 90.22 300.97 90.22 308.29 86.78 313.37 81.3 314.5 77.39 316.47 73.7 316.45 69.09 313.37 74.56 310.77 77.59 305.74 75.43 301.56 75.14 297.96 77.3 295.09 78.6 291.2 76.44 289.19 75.02 288.29 66.22"/><polygon class="cls-19" points="308.29 78.13 305.53 77.76 302.4 77.87 299.58 78.03 297.66 79.14 299.66 80.12 302.97 80.84 306.55 79.44 308.29 78.13"/></g><g id="PC_Mesa_2" data-name="PC Mesa 2"><polygon class="cls-6" points="387 223.49 345 201.82 345 160.83 346.35 159.5 387 180.16 387 223.49"/><polygon class="cls-30" points="417.08 209.04 387 223.49 387 194.6 417.08 209.04"/><polygon class="cls-15" points="387 204.46 403.17 212.66 387 220.7 387 204.46"/><path class="cls-31" d="M417,209.05s.1,1.27.11,1.81c0,1-2.19,1.91-1.46,1.54.4-.2-28,13-28,13L345,203.63v-1.81l42.61,21.24Z"/></g><polygon class="cls-26" points="531.93 279.31 482.31 254.5 507.12 242.09 556.75 266.9 531.93 279.31"/><polygon class="cls-27" points="508.3 246.56 507.33 246.92 534.35 260.94 535.41 260.41 508.3 246.56"/><polygon class="cls-27" points="508.16 247.35 507.33 246.92 508.31 252.07 512.27 254.26 517.85 266.21 519.53 266.21 513.52 253.95 508.97 251.21 508.16 247.35"/><polygon class="cls-27" points="507.75 246.29 508.7 246.77 489.26 256.44 488.35 255.99 507.75 246.29"/><path class="cls-24" d="M372.29,186.85a4.52,4.52,0,0,0-5.15-3.92c-2.66.42-4.54,3.28-4.84,5.79A7.69,7.69,0,0,0,365,195.8c1.87,1.43,5.37.45,6.4-1.51.89-1.71-1.7-3.23-2.6-1.52-.49.94-2.11.78-2.67,0a5.59,5.59,0,0,1-.86-3.14,4.53,4.53,0,0,1,1.51-3.29c.58-.58,2.43-.68,2.56.49.21,1.9,3.22,1.92,3,0Z"/><path class="cls-24" d="M368.86,191.58l3.61,0a1.5,1.5,0,0,0,0-3l-3.61,0a1.5,1.5,0,0,0,0,3Z"/><path class="cls-24" d="M360.07,191.46a1.5,1.5,0,0,0,0-3,1.5,1.5,0,0,0,0,3Z"/></g></svg>