<svg xmlns="http://www.w3.org/2000/svg" xmlns:xlink="http://www.w3.org/1999/xlink" viewBox="0 0 677.01 524.3"><defs><style>.cls-1{fill:url(#linear-gradient);}.cls-2{fill:#e6ddef;}.cls-3{fill:#023456;}.cls-4{fill:#f5f1f9;}.cls-5{fill:#72a5c8;}.cls-6{fill:#512082;}.cls-11,.cls-32,.cls-7{fill:none;stroke-miterlimit:10;}.cls-11,.cls-7{stroke:#023456;}.cls-7{stroke-width:3px;}.cls-8{fill:#9779b4;}.cls-9{fill:#01548a;}.cls-10{fill:#355d78;}.cls-12{fill:#0162a1;}.cls-13{fill:#0283d7;}.cls-14{fill:#6dbdf1;}.cls-15{fill:#0191ee;}.cls-16{fill:#aac9de;}.cls-17{fill:#718999;}.cls-18{fill:#6798b9;}.cls-19{fill:#b8c7d1;}.cls-20{fill:#4d728b;}.cls-21{fill:#94aab9;}.cls-22{fill:#9a66ce;}.cls-23{fill:#ddccef;}.cls-24{fill:#55656f;}.cls-25{fill:#8097a7;}.cls-26{fill:#85adc7;}.cls-27{fill:#5700ad;}.cls-28{fill:#bc99de;}.cls-29{fill:#e1eaf1;}.cls-30{fill:#3476a1;}.cls-31{fill:#a1c3da;}.cls-32{stroke:#55656f;}.cls-33{fill:#bbd4e5;}.cls-34{fill:#c2a3e2;}.cls-35{fill:#ae85d8;}.cls-36{fill:#744d9b;}.cls-37{fill:#d6e5ef;}.cls-38{fill:#c9ddea;}</style><linearGradient id="linear-gradient" x1="2095.24" y1="413.7" x2="2399.85" y2="413.7" gradientTransform="translate(-1873.6)" gradientUnits="userSpaceOnUse"><stop offset="0.43" stop-color="#c2abd3"/><stop offset="0.57" stop-color="#662db9"/></linearGradient></defs><title>escena-4</title><g id="suelo"><path class="cls-1" d="M0,303.11v39L338.36,511.29c34.69,17.35,34.72,17.35,69.42,0L677,376.69V337.52L373.05,488.84Z"/><path class="cls-2" d="M26.14,320.46c-34.7-17.35-34.7-17.35,0-34.7L269,164.32c34.7-17.35,34.7-17.35,69.39,0l312.28,156.2c34.7,17.29,34.7,17.29,2.34,33L407.81,476.59c-31.85,15.92-34.7,17.35-69.24-.07Z"/></g><g id="Pizarra"><polygon class="cls-3" points="398 122.23 611.92 229.25 611.91 110.34 398 3.32 398 122.23"/><polygon class="cls-4" points="402 119.85 607 218.4 607 116.29 402 14.18 402 119.85"/><polygon class="cls-5" points="397.9 3.32 404.55 0 619.4 106.62 619.31 225.57 611.88 229.25 611.85 110.34 397.9 3.32"/><polygon class="cls-6" points="474 114.51 521.27 138.28 521.42 114.5 474 90.72 474 114.51"/><line class="cls-7" x1="516.82" y1="138.29" x2="525.15" y2="151.18"/><line class="cls-7" x1="469.25" y1="86.56" x2="452.76" y2="65.91"/><polygon class="cls-8" points="429 64.49 446 72.68 446 56.3 429 48.11 429 64.49"/><polygon class="cls-9" points="437 86.86 446 91.03 446 82.69 437 78.52 437 86.86"/><polygon class="cls-10" points="437 98.75 446 102.92 446 94.58 437 90.41 437 98.75"/><polygon class="cls-10" points="437 110.64 446 114.81 446 106.47 437 102.3 437 110.64"/><line class="cls-11" x1="431.92" y1="78.52" x2="418.8" y2="72.68"/><line class="cls-11" x1="431.92" y1="81.49" x2="418.8" y2="75.66"/><line class="cls-11" x1="431.92" y1="84.46" x2="418.8" y2="78.63"/><line class="cls-11" x1="431.92" y1="91" x2="418.8" y2="85.17"/><line class="cls-11" x1="431.92" y1="93.98" x2="418.8" y2="88.14"/><line class="cls-11" x1="431.92" y1="96.95" x2="418.8" y2="91.11"/><line class="cls-11" x1="431.92" y1="102.9" x2="418.8" y2="97.06"/><line class="cls-11" x1="431.92" y1="105.87" x2="418.8" y2="100.03"/><line class="cls-11" x1="431.92" y1="108.84" x2="418.8" y2="103.01"/><polygon class="cls-12" points="556 121.6 571 128.57 571 114.62 556 107.64 556 121.6"/><polygon class="cls-13" points="579 132.3 594 139.27 594 125.32 579 118.34 579 132.3"/><polygon class="cls-14" points="551 148.35 565 155.33 565 141.37 551 134.4 551 148.35"/><polygon class="cls-15" points="572 177.49 588 184.46 588 170.51 572 163.53 572 177.49"/><polygon class="cls-8" points="529 146.81 553 159.16 553 175.54 529 163.19 529 146.81"/><line class="cls-7" x1="548" y1="113.8" x2="524" y2="113.8"/><line class="cls-7" x1="525.15" y1="128.57" x2="544.98" y2="138.29"/><line class="cls-11" x1="591.22" y1="155.33" x2="569.82" y2="146.41"/><path class="cls-11" d="M571.48,150.11"/><path class="cls-11" d="M589.82,158.2"/><path class="cls-11" d="M570.56,154.91"/><path class="cls-11" d="M590.11,163.32"/><line class="cls-11" x1="591.22" y1="158.89" x2="569.82" y2="149.98"/><line class="cls-11" x1="591.22" y1="162.46" x2="569.82" y2="153.54"/><line class="cls-11" x1="552.04" y1="164.95" x2="530.64" y2="154.28"/><line class="cls-11" x1="551.92" y1="162.05" x2="530.52" y2="151.38"/><line class="cls-11" x1="535.12" y1="93.58" x2="513.72" y2="82.92"/><line class="cls-11" x1="529.9" y1="94.84" x2="508.5" y2="84.17"/><line class="cls-11" x1="511.52" y1="81.94" x2="504.09" y2="78.24"/><line class="cls-11" x1="502.57" y1="77.62" x2="481.17" y2="66.95"/><line class="cls-11" x1="506.17" y1="83.13" x2="498.74" y2="79.43"/><line class="cls-11" x1="496.65" y1="78.38" x2="489.23" y2="74.67"/><line class="cls-11" x1="528.73" y1="99.02" x2="507.33" y2="88.35"/></g><g id="Escenario"><g id="esctritorio"><polygon class="cls-16" points="398.87 337.13 212.75 244.07 295.47 202.71 481.59 295.77 398.87 337.13"/><polygon class="cls-17" points="482 357.81 399.08 399.17 399.18 337.13 482 295.77 482 357.81"/><polygon class="cls-17" points="275.04 275.09 213 306.11 213 244.07 275.04 275.09"/></g><g id="libros"><polygon class="cls-18" points="443.73 300.5 408.97 317.88 382.9 304.84 417.66 287.46 443.73 300.5"/><polygon class="cls-19" points="445 300.5 445 304.41 409.66 321.66 383 309.19 383 304.84 409.65 317.88 445 300.5"/><polygon class="cls-20" points="439.39 296.92 408.02 312.6 384.49 300.84 415.86 285.15 439.39 296.92"/><polygon class="cls-21" points="439 296.92 439 300.44 407.58 316.01 384 304.75 384 300.84 407.58 312.6 439 296.92"/><polygon class="cls-22" points="438.3 292.37 412.31 305.36 392.81 295.61 418.8 282.62 438.3 292.37"/><polygon class="cls-23" points="438 292.37 438 295.29 412.25 308.19 393 298.86 393 295.61 412.25 305.36 438 292.37"/></g><g id="PC_Mesa_2" data-name="PC Mesa 2"><polygon class="cls-24" points="300 263.36 256 240.86 256 198.29 257.59 196.9 300 218.36 300 263.36"/><polygon class="cls-25" points="330.01 248.36 300 263.36 300 233.36 330.01 248.36"/><polygon class="cls-26" points="300.37 244.61 315.37 252.11 300.37 259.61 300.37 259.61 300.37 244.61"/><polygon class="cls-26" points="300.43 235.67 307.49 239.2 300.43 242.74 300.43 242.74 300.43 235.67"/><path class="cls-20" d="M330.37,248.36s0,1,0,1.56c0,1-1.48,1.71-.72,1.33.42-.2-28.9,14.56-28.9,14.56L256,242.73v-1.87l44.69,22.5Z"/><path class="cls-27" d="M281.24,230.15c0,2.36-1.57,4.27-3.51,4.27s-3.51-1.91-3.51-4.27,1.57-4.28,3.51-4.28S281.24,227.78,281.24,230.15Z"/></g><g id="ceo"><path class="cls-18" d="M374,330c0,3.83-4.07,7.3-7.9,7.3h-2.32a7.06,7.06,0,0,1-6.94-7.08l.37-14,16.79,8Z"/><polygon class="cls-28" points="422 209.39 422 265.5 380.22 244.86 381.47 189.24 422 209.39"/><path class="cls-18" d="M404,257.36,367,238.6V209.05c0-15.78,16-16.75,16-16.75h8.68c-.16,1,12.33.64,12.33,16Z"/><path class="cls-26" d="M397.53,239.13a5.57,5.57,0,0,1-6.16,4.87l-1.92-.15a5.56,5.56,0,0,1-5.36-5.73l2.34-30.91a5.56,5.56,0,0,1,6.16-4.87l1.92.15a5.56,5.56,0,0,1,5.35,5.73Z"/><polygon class="cls-29" points="343.72 274.92 318.61 261.61 358.8 239.49 382.99 252.14 343.72 274.92"/><path class="cls-26" d="M374.31,266.47a5.54,5.54,0,0,1-7.83-.36l-1.36-1.37a5.55,5.55,0,0,1-.28-7.84l22-21.8a5.55,5.55,0,0,1,7.83.36l1.36,1.37a5.55,5.55,0,0,1,.28,7.84Z"/><path class="cls-18" d="M351,314.88c0,3.83-3.45,6.42-7.28,6.42H341.4a6.07,6.07,0,0,1-6.4-6.42v-10l16,8.24Z"/><path class="cls-30" d="M399.34,171.51a21.24,21.24,0,1,1-21.24-21.24A21.23,21.23,0,0,1,399.34,171.51Z"/><path class="cls-3" d="M397,169.49s-1.69-1.59-2.41-1.23l-13.8,6.9-21.59-10.79c-.67-.34-1.1-.3-1.1.56s0,2.76,0,3.43a2.71,2.71,0,0,0,1.33,1.93s6.63,3.85,7.41,3.57c1-.35,1.61-3.16,2.08-3.34a.92.92,0,0,1,.92.57c.15.58.12,4.33.92,4.73l9,4.5c.6.51,1-4,1-4,.69-.61,13.39-6.68,14-6.9s1.66,1.1,1.66,1.1Z"/><path class="cls-31" d="M366.69,173c-.32.11-7.46-3.4-7.73-4s-.27-3.64,0-3.81,9.15,4.47,9.22,4.85A8.14,8.14,0,0,1,366.69,173Z"/><path class="cls-31" d="M379.23,179.23c-.31.11-7.94-3.63-8.22-4.22s-.54-3.71-.26-3.88,8.95,4.3,9,4.68S379.54,179.12,379.23,179.23Z"/><path class="cls-26" d="M369.33,200.52l-24.06,18.22c-3,2-5.19,3.76-6.52,8.63s-6.83,25.11-6.83,25.11a5.55,5.55,0,0,0,4.17,6.64l1.86.51a5.56,5.56,0,0,0,7-3.61l7-25.8,15.32-11.5C367.45,217.14,366.52,204.64,369.33,200.52Z"/><polygon class="cls-24" points="343 262.35 343 264 341.73 262.53 335.67 241.31 336.88 240.97 343 262.35"/><path class="cls-26" d="M343.23,253.47c0,2.07-1.79,5.3-3.85,5.3s-3.62-3.23-3.62-5.3a3.74,3.74,0,1,1,7.47,0Z"/><path class="cls-32" d="M343.7,264.53c.68.41.68,1.37,1.38,1.78.29.17.88,0,1.23.16a6.13,6.13,0,0,1,1.21.65"/></g><g id="Maseta"><polygon class="cls-17" points="33.06 240.94 74 261.4 114.92 240.94 74 220.47 33.06 240.94"/><polygon class="cls-16" points="115 240.94 115 254.24 74.03 274.7 33.09 254.24 33.07 240.94 74.04 261.4 115 240.94"/><polygon class="cls-33" points="107.76 257.82 101.7 303.31 73.99 317.02 44.23 302.33 40.23 257.82 74 274.7 107.76 257.82"/><polygon class="cls-24" points="38.69 240.69 73.97 258.33 109.24 240.69 73.97 223.06 38.69 240.69"/><path class="cls-34" d="M74.18,245.81S91,236.39,96.24,230.35s8.56-38.79,8.56-38.79-20.7,13.49-23.14,18.3S74.18,245.81,74.18,245.81Z"/><path class="cls-35" d="M70.77,156.81s15.48,37.57,15.48,44.5-12.07,44.5-12.07,44.5-15.52-29.94-16.5-40.49S70.77,156.81,70.77,156.81Z"/><path class="cls-22" d="M35,194s21,10.8,25.33,15.66,13.85,36.17,13.85,36.17-21-10.64-26.46-19S35,194,35,194Z"/><polygon class="cls-36" points="82.23 232.16 91.77 224.63 96.5 205.83 90.67 223.52 82.23 232.16"/><polygon class="cls-36" points="71 178.1 73.74 202.02 73.47 230.35 71 201.31 71 178.1"/><polygon class="cls-36" points="44.05 206.64 51.29 226.13 67.36 235.78 52.19 224.63 44.05 206.64"/><polygon class="cls-37" points="40.65 262.46 74.18 278.49 73.99 317.02 44.23 302.33 40.65 262.46"/><polygon class="cls-38" points="74 261.4 74.03 274.7 33.09 254.24 33.06 240.94 74 261.4"/></g></g></svg>