<svg xmlns="http://www.w3.org/2000/svg" xmlns:xlink="http://www.w3.org/1999/xlink" viewBox="0 0 786.09 514.01"><defs><style>.cls-1{fill:url(#linear-gradient);}.cls-2{fill:#e6ddef;}.cls-3{fill:#01548a;}.cls-4{fill:#c2d6e3;}.cls-5{fill:#6798b9;}.cls-6{fill:#484848;}.cls-7{fill:#e5e5e5;}.cls-8{fill:#6d6d6d;}.cls-9{fill:#bfbfbf;}.cls-10{fill:#bc99de;}.cls-11{fill:#5700ad;}.cls-12{fill:#023456;}.cls-13{fill:#3476a1;}.cls-14{fill:#b181df;}.cls-15{fill:#e6e6e6;}.cls-16{fill:gray;}.cls-17{fill:#410082;}.cls-18{fill:#7933bd;}.cls-19{fill:#945cca;}.cls-20{fill:#a1c3da;}.cls-21{fill:#5d91b4;}.cls-22{fill:url(#linear-gradient-2);}.cls-23{fill:url(#linear-gradient-3);}.cls-24{fill:url(#linear-gradient-4);}.cls-25{fill:url(#linear-gradient-5);}.cls-26{fill:url(#linear-gradient-6);}.cls-27{fill:url(#linear-gradient-7);}.cls-28{fill:url(#linear-gradient-8);}.cls-29{fill:url(#linear-gradient-9);}.cls-30{fill:url(#linear-gradient-10);}.cls-31{fill:url(#linear-gradient-11);}.cls-32{fill:url(#linear-gradient-12);}.cls-33{fill:url(#linear-gradient-13);}.cls-34{fill:url(#linear-gradient-14);}.cls-35{fill:url(#linear-gradient-15);}.cls-36{fill:#6f4598;}.cls-37{fill:#d9d9d9;}.cls-38{fill:#8f8f8f;}</style><linearGradient id="linear-gradient" x1="1991.84" y1="365.7" x2="2345.49" y2="365.7" gradientTransform="translate(-1734.52)" gradientUnits="userSpaceOnUse"><stop offset="0.44" stop-color="#c2abd3"/><stop offset="0.59" stop-color="#665eb9"/></linearGradient><linearGradient id="linear-gradient-2" x1="282.47" y1="136.68" x2="290.82" y2="123.25" gradientUnits="userSpaceOnUse"><stop offset="0" stop-color="#99bbd0"/><stop offset="0.29" stop-color="#90b4cc"/><stop offset="0.76" stop-color="#76a3c0"/><stop offset="1" stop-color="#6798b9"/></linearGradient><linearGradient id="linear-gradient-3" x1="271.84" y1="142.06" x2="280.89" y2="126.61" xlink:href="#linear-gradient-2"/><linearGradient id="linear-gradient-4" x1="261.74" y1="147.32" x2="269.48" y2="132.9" xlink:href="#linear-gradient-2"/><linearGradient id="linear-gradient-5" x1="247.48" y1="156.79" x2="257.36" y2="142.83" xlink:href="#linear-gradient-2"/><linearGradient id="linear-gradient-6" x1="239.75" y1="157.98" x2="248.88" y2="144.61" xlink:href="#linear-gradient-2"/><linearGradient id="linear-gradient-7" x1="229.56" y1="162.33" x2="234.59" y2="155.42" xlink:href="#linear-gradient-2"/><linearGradient id="linear-gradient-8" x1="219.44" y1="168.15" x2="225.69" y2="155.69" xlink:href="#linear-gradient-2"/><linearGradient id="linear-gradient-9" x1="206.09" y1="177.64" x2="214.68" y2="163.05" xlink:href="#linear-gradient-2"/><linearGradient id="linear-gradient-10" x1="197.22" y1="179.17" x2="204.49" y2="165.99" xlink:href="#linear-gradient-2"/><linearGradient id="linear-gradient-11" x1="184.46" y1="186.91" x2="194.47" y2="172.21" xlink:href="#linear-gradient-2"/><linearGradient id="linear-gradient-12" x1="142.53" y1="186.69" x2="211.14" y2="186.69" xlink:href="#linear-gradient-2"/><linearGradient id="linear-gradient-13" x1="163.49" y1="198.57" x2="171.57" y2="183.94" xlink:href="#linear-gradient-2"/><linearGradient id="linear-gradient-14" x1="153.65" y1="200.9" x2="160.88" y2="187.05" xlink:href="#linear-gradient-2"/><linearGradient id="linear-gradient-15" x1="142.81" y1="209" x2="150.68" y2="192.79" xlink:href="#linear-gradient-2"/></defs><title>escena-1</title><g id="Suelo"><g id="Suelo-2" data-name="Suelo"><path class="cls-1" d="M0,237.39v45.29L392.87,478.91c40.25,20.13,40.43,20.13,80.68,0L786,322.75V277.31L433.09,452.87Z" transform="translate(0 20)"/><path class="cls-2" d="M31,257.52c-40.26-20.13-40.26-20.13,0-40.25L312.76,76.38c40.26-20.12,40.26-20.12,80.51,0L755.55,257.59c40.26,20.06,40.26,20.06,2.71,38.3L473.78,438.66c-36.95,18.47-40.26,20.12-80.34-.09Z" transform="translate(0 20)"/></g></g><g id="Notbok"><g id="PC"><polygon class="cls-3" points="477.73 1.46 477.91 140.93 641.21 222.61 641.05 82.38 477.73 1.46"/><polygon class="cls-4" points="477.73 140.93 361.01 199.28 524.4 280.97 641.11 222.61 477.73 140.93"/><path class="cls-5" d="M477.73-18.54h0s11.08-5.84,34.43,5.83C541.59,2,619.23,41.19,628.69,45.92,652,57.6,652.31,56.78,652.2,80.07c0,6.81,0,62.87,0,93.37,0,23.32-11.09,29.17-11.09,29.17l-.2-140.24Z" transform="translate(0 20)"/><path class="cls-3" d="M641.11,202.61s1,11.27-21.58,22.76-47.27,22.76-70.62,34.37-23.34,11.62-46.68,1.23c-15.05-6.7-78.57-38.71-116.71-57.77C362.18,191.53,361,179.27,361,179.27S496.6,247.21,502.53,250c23,10.94,23,10.94,46.38-1.32C555.19,245.41,641.11,202.61,641.11,202.61Z" transform="translate(0 20)"/><polygon class="cls-5" points="503.87 229.64 470.07 246.54 419.36 221.19 453.17 204.29 503.87 229.64"/><polygon class="cls-5" points="609.02 225.54 562.33 248.88 422.29 178.27 468.97 154.93 609.02 225.54"/><polygon class="cls-6" points="566 84.58 569 82.89 569 59.76 566 58.06 566 84.58"/></g><polygon class="cls-7" points="481 8.7 481 134.45 637 209.9 637 84.15 481 8.7"/><polygon class="cls-8" points="592 124.34 592 71.32 565 58.06 565 111.31 592 124.34"/><polygon class="cls-9" points="547.56 143.9 547.37 157.58 588 177.63 588 163.24 547.56 143.9"/><polygon class="cls-6" points="547.56 143.9 550.42 142.98 590 161.82 590 176.49 588.12 177.44 588 163.24 547.56 143.9"/><polygon class="cls-9" points="486.56 78.9 486.37 92.58 527 112.63 527 98.24 486.56 78.9"/><polygon class="cls-6" points="486.56 78.9 488.8 77.89 529 97.9 529 111.49 527 112.63 527 98.24 486.56 78.9"/><polygon class="cls-9" points="487.56 55.9 487.37 69.58 528 89.63 528 75.24 487.56 55.9"/><polygon class="cls-6" points="487.56 55.9 489.89 54.98 530 74.9 530 88.49 528.12 89.44 528 75.24 487.56 55.9"/><polygon class="cls-9" points="487.76 21.03 487.5 44.41 557 78.67 557 54.07 487.76 21.03"/><polygon class="cls-6" points="487.76 21.03 491.2 20 559 53.5 559 76.72 556.37 78.36 556.98 54.8 487.76 21.03"/><polygon class="cls-9" points="578.77 151.35 578.92 126.78 588.67 131.74 588.52 156.31 578.77 151.35"/><polygon class="cls-6" points="578.92 126.78 580.69 126.02 590 130.43 590 154.93 588.14 156.16 588.32 131.56 578.92 126.78"/><polygon class="cls-6" points="569 60.03 568.82 107.51 592 120.45 592 124.34 565 111.31 565 58.06 569 60.03"/><g id="Color"><polygon class="cls-10" points="601.59 183.95 601.98 122.36 626.42 134.79 626.04 196.38 601.59 183.95"/><polygon class="cls-11" points="601.98 122.36 605.02 121.15 628 132.88 628 193.98 625.94 196.38 625.76 134.48 601.98 122.36"/><polygon class="cls-10" points="603 89.06 628 100.88 628 89.06 603 77.25 603 89.06"/><polygon class="cls-11" points="628 100.88 629 100.14 629 88.33 604.85 76.57 603 77.25 628 89.06 628 100.88"/><polygon class="cls-10" points="603 107.06 628 118.88 628 107.06 603 95.25 603 107.06"/><polygon class="cls-11" points="628 118.88 629 118.14 629 106.33 604.85 94.57 603 95.25 628 107.06 628 118.88"/></g></g><g id="Personajes"><g id="lleva"><path class="cls-12" d="M300.35,150.06s9.4-16.26,10.38-17.72l-.06-20a6.53,6.53,0,0,1,13,0s-.35,25.3-4.19,30l-7.77,14.09c-1.25,2.25-4.81,2.66-8,.92S299.11,152.31,300.35,150.06Z" transform="translate(0 20)"/><path class="cls-3" d="M321.38,115.35c3.12-1.77,7.52-1.49,9,1.11l10.7,18.83c.22.39,2.65,4.83,2.77,6.54l1.77,26c.26,3.72-3.21,7-6.8,7.24s-7.47-2.53-7.72-6.25l-1.72-25.29c-.22-.83-11.65-19.91-11.65-19.91C316.25,121.06,318.25,117.13,321.38,115.35Z" transform="translate(0 20)"/><path class="cls-12" d="M348.86,82.88c2.81-1,6.06.93,7,3.6h0c.94,2.67-.38,6.2-3.2,7.2l-20.41,7.2c-2.82,1-6.07-.93-7-3.59h0c-.94-2.67.38-6.21,3.2-7.2Z" transform="translate(0 20)"/><path class="cls-5" d="M340.62,53.67A13.32,13.32,0,1,1,327.3,40.35,13.32,13.32,0,0,1,340.62,53.67Z" transform="translate(0 20)"/><polygon class="cls-11" points="338.3 100.66 336.72 102.62 346.66 130.92 358.25 129.13 360 125.31 347.82 128.85 338.3 100.66"/><path class="cls-13" d="M333.56,113.57a13,13,0,0,1-14.67,11.14h0A13,13,0,0,1,307.76,110l4-29a13,13,0,0,1,14.66-11.14h0a13,13,0,0,1,11.13,14.66Z" transform="translate(0 20)"/><path class="cls-3" d="M321.31,79.65c2.48-1.4,6.22-.72,7.71,1.88l8.55,14.94,16.8-5.88c2.84-1,6.11.93,7.06,3.59s-.39,6.21-3.22,7.2l-20.57,7.21a5.06,5.06,0,0,1-3.24,0,5.48,5.48,0,0,1-4.63-2.58L319,87.18C317.51,84.58,318.84,81,321.31,79.65Z" transform="translate(0 20)"/><polygon class="cls-14" points="359.59 125.31 350.59 100.49 338.3 100.66 347.62 128.85 359.59 125.31"/><polygon class="cls-15" points="329.82 70.72 331.36 73.66 334.88 76.67 340.38 76.2 339.61 81.18 333.6 85.91 331.28 87.3 327 87 327 78.72 328.65 73.74 327.3 70.72 329.82 70.72"/><path class="cls-5" d="M336,58.72a4.53,4.53,0,0,1,2,0c1.28.22.3,2.46.3,2.46a2.31,2.31,0,0,1-2.3-.36C334.75,59.94,336,58.72,336,58.72Z" transform="translate(0 20)"/></g><g id="Basura"><path class="cls-12" d="M579.58,350.06s-9.39-16.26-10.38-17.72l.06-20a6.52,6.52,0,0,0-13-.05s.34,25.3,4.18,30l7.78,14.09c1.24,2.25,4.8,2.66,7.94.92S580.83,352.31,579.58,350.06Z" transform="translate(0 20)"/><path class="cls-3" d="M565.55,310.35c-3.12-1.77-7.52-1.49-9,1.11l-10.7,18.83c-.22.39-2.65,4.83-2.77,6.54l-1.77,26c-.26,3.72,3.21,7,6.8,7.24s7.47-2.53,7.72-6.25l1.72-25.29c.22-.83,11.66-19.91,11.66-19.91C570.68,316.06,568.68,312.13,565.55,310.35Z" transform="translate(0 20)"/><path class="cls-12" d="M524.14,296c-2.64,1.42-3.4,5.11-2.06,7.6h0c1.34,2.49,4.85,3.89,7.48,2.48l19.07-10.25c2.63-1.42,3.39-5.12,2-7.61h0c-1.33-2.49-4.84-3.89-7.47-2.47Z" transform="translate(0 20)"/><path class="cls-13" d="M546.38,313.57A13,13,0,0,0,561,324.71h0A13,13,0,0,0,572.17,310l-4-29a13,13,0,0,0-14.67-11.14h0a13,13,0,0,0-11.13,14.66Z" transform="translate(0 20)"/><path class="cls-5" d="M539.31,252.67a13.32,13.32,0,1,0,13.32-13.32A13.32,13.32,0,0,0,539.31,252.67Z" transform="translate(0 20)"/><path class="cls-3" d="M565.13,274.36c-2.62,1.09-4.38,4.46-3.25,7.23l6.56,15.93-15,9.65c-2.52,1.63-3,5.4-1.49,7.78s5.14,3.5,7.66,1.88L578,305a5.13,5.13,0,0,0,2-2.56,5.5,5.5,0,0,0,.8-5.24l-8.25-20.06C571.36,274.38,567.75,273.26,565.13,274.36Z" transform="translate(0 20)"/><polygon class="cls-9" points="540.43 304.45 575.02 321.75 557.72 330.4 523.13 313.1 540.43 304.45"/><polygon class="cls-16" points="557.64 330.42 575 321.75 575 323.48 557.65 332.43 523 314.78 523 313.1 557.64 330.42"/></g><g id="ESCALERA"><g id="Pone"><path class="cls-12" d="M484.29,119.63s6.08-17.5,6.76-19.1l-3.78-19.39a6.44,6.44,0,0,1,12.61-2.46s4.36,24.58,1.52,29.87l-4.91,15.1c-.79,2.41-4.16,3.47-7.53,2.36S483.5,122,484.29,119.63Z" transform="translate(0 20)"/><path class="cls-12" d="M542.19,43c2.94.13,5.21,3.08,5.09,5.87h0c-.12,2.78-2.64,5.54-5.58,5.41l-21.34-.91c-3-.13-5.21-3.08-5.1-5.87h0c.12-2.79,2.63-5.54,5.58-5.42Z" transform="translate(0 20)"/><path class="cls-13" d="M512.56,80.08a12.85,12.85,0,0,1-17,6.37h0a12.85,12.85,0,0,1-6.37-17l12-26.31a12.85,12.85,0,0,1,17-6.37h0a12.84,12.84,0,0,1,6.37,17Z" transform="translate(0 20)"/><path class="cls-5" d="M535.41,21.63A13.14,13.14,0,1,1,522.27,8.49,13.14,13.14,0,0,1,535.41,21.63Z" transform="translate(0 20)"/></g><polygon class="cls-17" points="546 55.42 550.06 54.01 574 66.61 574 114.58 571 117.05 571 67.75 546 55.42"/><polygon class="cls-18" points="546 104.72 571 117.05 571 67.75 546 55.42 546 104.72"/><path class="cls-5" d="M569.19,53.35c-.31-2.78-3-5.35-5.94-5,0,0-22.4,2.66-22.91,2.94l-.14-.06L520,44.38c-2.79-1-6,1-6.86,3.64s.46,6.11,3.25,7.06l20.25,6.83c1.36.46,5.77.15,6.7,0l21.23-2.4C567.45,59.22,569.5,56.12,569.19,53.35Z" transform="translate(0 20)"/><g id="Escalera-2" data-name="Escalera"><path class="cls-19" d="M530,87l-36,18.21-18,89.9,4.6-2.33,1.87-9.05,28-13.73-1.57,8.47,3.1-1.57Zm-32.65,21.51,28.15-14.32L523,107.73l-28.2,13.77Zm-3.69,18.44,28.47-14.55-2.83,13.57L491,140.11Zm-3.79,18.91L518,132.34l-2.67,13.36L487.2,159.3ZM483.65,177l2.53-12.63,28.33-14.52-2.7,13.58Z" transform="translate(0 20)"/><path class="cls-10" d="M561.94,180.81l1.34,6.39,2.7-1.35L548,96l-36,18,18,89.9,4.08-2-1.32-6.72Zm-45.34-65.3,29.15-14.27L549,116.55l-29.33,14.39Zm4.49,20.9,29.16-14.26,3.21,15.3-29.34,14.4Zm4,20,29.15-14.26,3.21,15.3-29.33,14.4ZM529,176l29.16-14.26,3.2,15.31L532,191.4Z" transform="translate(0 20)"/><polygon class="cls-19" points="494.05 125.17 512.04 133.94 548 115.95 530.02 106.96 494.05 125.17"/></g><path class="cls-12" d="M512.55,20.33s1-.93,1.42-.72l8.08,4.05,12.66-6.33c.39-.19.64-.18.64.33v2a1.57,1.57,0,0,1-.78,1.13s-3.88,2.26-4.34,2.09-1-1.85-1.22-1.95a.54.54,0,0,0-.54.33c-.09.34-.07,2.54-.54,2.77l-5.27,2.64c-.35.3-.59-2.36-.59-2.36-.41-.35-7.85-3.91-8.22-4s-1,.64-1,.64Z" transform="translate(0 20)"/><path class="cls-20" d="M530.32,22.41a22.92,22.92,0,0,0,4.53-2.33,5.25,5.25,0,0,0,0-2.24,36.66,36.66,0,0,0-5.4,2.84A4.71,4.71,0,0,0,530.32,22.41Z" transform="translate(0 20)"/><path class="cls-20" d="M523,26a26.51,26.51,0,0,0,4.82-2.47,5.57,5.57,0,0,0,.15-2.28A34.46,34.46,0,0,0,522.66,24,5.68,5.68,0,0,0,523,26Z" transform="translate(0 20)"/></g></g><g id="Extra"><polyline class="cls-13" points="98.81 239.72 156.27 211.32 156.27 124.8 98.81 153.53"/><polygon class="cls-21" points="185 110.43 185 139.16 128 167.9 128 139.16 185 110.43"/><polygon class="cls-13" points="185 110.43 127.54 81.7 70.08 110.43 127.54 139.16 185 110.43"/><polygon class="cls-3" points="127.63 167.9 99 153.53 99 239.72 70 225.36 70 110.43 127.55 139.16 127.63 167.9"/><path class="cls-22" d="M255.94,104.05h0c-3.08,0-5.47,5.76-5.47,12.26s2.81,10.57,5.47,12.1h0l61.63,29.9,1.51-23.16Z" transform="translate(0 20)"/><path class="cls-12" d="M323.06,146.5c0,6.52-2.46,11.81-5.49,11.81s-5.5-5.29-5.5-11.81,2.46-11.8,5.5-11.8S323.06,140,323.06,146.5Z" transform="translate(0 20)"/><path class="cls-23" d="M245.15,109.45h0c-3.09,0-5.48,5.76-5.48,12.25s2.82,10.57,5.48,12.11h0l61.63,29.89,1.5-23.15Z" transform="translate(0 20)"/><path class="cls-12" d="M312.27,151.9c0,6.52-2.46,11.8-5.5,11.8s-5.49-5.28-5.49-11.8,2.46-11.8,5.49-11.8S312.27,145.38,312.27,151.9Z" transform="translate(0 20)"/><path class="cls-24" d="M234.35,115.62h0c-3.08,0-5.47,5.76-5.47,12.25s2.81,10.57,5.47,12.1h0L296,169.87l1.51-23.16Z" transform="translate(0 20)"/><path class="cls-12" d="M301.48,158.07c0,6.52-2.46,11.8-5.5,11.8s-5.5-5.28-5.5-11.8,2.46-11.81,5.5-11.81S301.48,151.55,301.48,158.07Z" transform="translate(0 20)"/><path class="cls-25" d="M223.56,121h0c-3.09,0-5.47,5.75-5.47,12.25s2.81,10.57,5.47,12.1h0l61.63,29.9,1.5-23.16Z" transform="translate(0 20)"/><path class="cls-12" d="M290.68,163.46c0,6.52-2.46,11.81-5.49,11.81s-5.5-5.29-5.5-11.81,2.46-11.8,5.5-11.8S290.68,156.94,290.68,163.46Z" transform="translate(0 20)"/><path class="cls-26" d="M212.76,126.41h0c-3.08,0-5.47,5.76-5.47,12.25s2.82,10.58,5.47,12.11h0l61.64,29.89,1.5-23.15Z" transform="translate(0 20)"/><path class="cls-12" d="M279.89,168.86c0,6.52-2.46,11.8-5.5,11.8s-5.5-5.28-5.5-11.8,2.47-11.8,5.5-11.8S279.89,162.34,279.89,168.86Z" transform="translate(0 20)"/><path class="cls-27" d="M202,131.81h0c-3.08,0-5.47,5.76-5.47,12.25s2.81,10.57,5.47,12.1h0l61.63,29.9,1.51-23.15Z" transform="translate(0 20)"/><path class="cls-12" d="M269.09,174.26c0,6.52-2.46,11.8-5.49,11.8s-5.5-5.28-5.5-11.8,2.46-11.81,5.5-11.81S269.09,167.74,269.09,174.26Z" transform="translate(0 20)"/><path class="cls-28" d="M191.18,138h0c-3.09,0-5.48,5.75-5.48,12.25s2.82,10.57,5.48,12.1h0l61.63,29.9,1.5-23.16Z" transform="translate(0 20)"/><path class="cls-12" d="M258.3,180.43c0,6.52-2.46,11.8-5.5,11.8s-5.49-5.28-5.49-11.8,2.46-11.81,5.49-11.81S258.3,173.91,258.3,180.43Z" transform="translate(0 20)"/><path class="cls-29" d="M180.38,143.37h0c-3.08,0-5.47,5.76-5.47,12.26s2.82,10.57,5.47,12.1h0L242,197.63l1.51-23.16Z" transform="translate(0 20)"/><path class="cls-12" d="M247.51,185.82c0,6.52-2.46,11.81-5.5,11.81s-5.5-5.29-5.5-11.81S239,174,242,174,247.51,179.3,247.51,185.82Z" transform="translate(0 20)"/><path class="cls-30" d="M169.59,148h0c-3.08,0-5.47,5.76-5.47,12.25s2.81,10.57,5.47,12.1h0l61.63,29.9,1.51-23.15Z" transform="translate(0 20)"/><path class="cls-12" d="M236.71,190.45c0,6.52-2.46,11.8-5.49,11.8s-5.5-5.28-5.5-11.8,2.46-11.81,5.5-11.81S236.71,183.93,236.71,190.45Z" transform="translate(0 20)"/><path class="cls-31" d="M158.8,153.4h0c-3.09,0-5.48,5.75-5.48,12.25s2.82,10.57,5.48,12.1h0l61.63,29.9,1.5-23.16Z" transform="translate(0 20)"/><path class="cls-12" d="M225.92,195.85c0,6.52-2.46,11.8-5.5,11.8s-5.5-5.28-5.5-11.8,2.47-11.81,5.5-11.81S225.92,189.33,225.92,195.85Z" transform="translate(0 20)"/><path class="cls-32" d="M148,159.56h0c-3.08,0-5.47,5.76-5.47,12.26s2.81,10.57,5.47,12.1h0l61.63,29.9,1.51-23.16Z" transform="translate(0 20)"/><path class="cls-12" d="M215.13,202c0,6.52-2.46,11.81-5.5,11.81s-5.5-5.29-5.5-11.81,2.46-11.8,5.5-11.8S215.13,195.49,215.13,202Z" transform="translate(0 20)"/><path class="cls-33" d="M137.21,165h0c-3.09,0-5.48,5.76-5.48,12.25s2.82,10.58,5.48,12.11h0l61.63,29.89,1.5-23.15Z" transform="translate(0 20)"/><path class="cls-12" d="M204.33,207.41c0,6.52-2.46,11.8-5.49,11.8s-5.5-5.28-5.5-11.8,2.46-11.8,5.5-11.8S204.33,200.89,204.33,207.41Z" transform="translate(0 20)"/><path class="cls-34" d="M126.41,168.82h0c-3.08,0-5.47,5.75-5.47,12.25s2.82,10.57,5.47,12.1h0L188,223.07l1.51-23.16Z" transform="translate(0 20)"/><path class="cls-12" d="M193.54,211.27c0,6.51-2.46,11.8-5.5,11.8s-5.5-5.29-5.5-11.8,2.46-11.81,5.5-11.81S193.54,204.75,193.54,211.27Z" transform="translate(0 20)"/><path class="cls-35" d="M116.39,175h0c-3.08,0-5.47,5.76-5.47,12.26s2.81,10.57,5.47,12.1h0L178,229.24l1.51-23.16Z" transform="translate(0 20)"/><path class="cls-12" d="M182.74,217.43c0,6.52-2.46,11.81-5.49,11.81s-5.5-5.29-5.5-11.81,2.46-11.8,5.5-11.8S182.74,210.91,182.74,217.43Z" transform="translate(0 20)"/><polygon class="cls-3" points="110.23 206.44 171.9 237.28 171.91 256.55 110.23 225.72 110.23 206.44"/><polygon class="cls-5" points="323.02 181.59 171.91 256.55 171.9 237.28 323.06 161.74 323.02 181.59"/><polygon class="cls-5" points="179 282.76 172 286.29 172 255.45 179 251.61 179 282.76"/><polygon class="cls-3" points="165 282.76 172 286.29 172 255.45 165 251.61 165 282.76"/><polygon class="cls-3" points="110 255.01 117 258.53 117 227.69 110 223.85 110 255.01"/><polygon class="cls-5" points="323 211.06 316 214.59 316 183.75 323 179.91 323 211.06"/><polygon class="cls-14" points="223.74 199.27 181.61 178.2 195.65 171.18 237.79 192.25 223.74 199.27"/><polygon class="cls-36" points="181 178.2 223.05 199.27 237 192.25 237 194.35 223.05 201.07 181 179.96 181 178.2"/><polygon class="cls-36" points="209 161.17 250.74 182.24 278 169.81 278 171.56 250.57 184.04 209 162.93 209 161.17"/><polygon class="cls-19" points="264.75 162.01 251.04 168.16 223.02 154.15 208.98 161.17 250.74 182.24 278 169.81 264.75 162.01"/><g id="Basura-2" data-name="Basura"><polygon class="cls-5" points="466.92 367.48 433.54 384.3 433.54 451.61 464.57 435.89 466.92 367.48"/><polygon class="cls-13" points="399.97 367.48 433.54 384.3 433.54 451.61 402.22 435.95 399.97 367.48"/><polygon class="cls-10" points="417.38 389.21 415.46 390.9 414.94 386.93 412.68 389.37 413.2 391.25 410.2 390.62 411.31 385.47 411.99 387.08 415.96 382.8 417.38 389.21"/><polygon class="cls-10" points="407.39 392.61 409.19 393.49 407.54 396.51 409.88 397.26 410.52 395.54 411.75 398.98 408.69 401.1 409.13 399.4 405.02 398.07 407.39 392.61"/><polygon class="cls-10" points="415.76 402.02 415.55 399.26 418.67 399.95 418.1 396.54 416.46 396.54 418.48 393.27 421.61 396.22 420.1 396.48 421.11 402.46 415.76 402.02"/><polygon class="cls-12" points="474.69 350.98 433.54 371.54 392.93 350.98 433.8 330.54 474.69 350.98"/><polygon class="cls-3" points="393 350.98 393 364.11 433.46 384.3 474.7 363.71 474.69 350.98 433.45 371.54 393 350.98"/><polygon class="cls-13" points="433.54 371.54 433.54 384.3 474.7 363.71 474.69 350.98 433.54 371.54"/><polygon class="cls-37" points="428.67 366.17 414.95 320.69 425.1 317.98 439.57 365.85 431.97 369.74 428.67 366.17"/><polygon class="cls-16" points="414.95 320.69 426.77 359.89 424.97 358.07 413.64 320.01 423.03 317.19 425.1 317.98 414.95 320.69"/><polygon class="cls-9" points="429.17 325.74 442.83 322.46 449.96 361.31 435.46 367.64 429.17 325.74"/><polygon class="cls-16" points="442.83 322.46 440.21 321.62 428.15 325.7 434.64 368.4 436.39 367.48 429.55 326.66 442.83 322.46"/><polygon class="cls-16" points="453.72 330.93 451.68 329.93 443.81 330.69 447.09 362.57 448.48 361.95 445.23 331.98 453.72 330.93"/><polygon class="cls-38" points="456.18 358.63 453.72 330.93 445.23 331.98 448.48 361.95 456.18 358.63"/><polygon class="cls-13" points="431.97 369.74 410.2 333.59 376.67 321.62 396 351.04 431.97 369.74"/><polygon class="cls-3" points="376.56 321.72 381.15 320.56 412.46 331.5 433.85 368.75 431.97 369.74 410.2 333.59 376.56 321.72"/></g><polygon class="cls-14" points="166.59 203.29 128.12 176.1 143.07 171.28 181.54 198.46 166.59 203.29"/><polygon class="cls-36" points="127.52 176.01 165.91 203.18 180.76 198.35 180.44 200.43 165.63 204.96 127.26 177.75 127.52 176.01"/><path class="cls-14" d="M88.77,195.48c-3.44-2.76-8.67-.23-9.22,4-.24,1.83,1.28,3.5,2.9,4.07a5.08,5.08,0,0,0,5.15-1.09c1.43-1.31-.69-3.42-2.12-2.13-.92.83-3,.67-2.93-.85s2.92-2.81,4.1-1.85c1.49,1.2,3.63-.91,2.12-2.13Z" transform="translate(0 20)"/><path class="cls-14" d="M84.76,200.73l2.08.43a1.54,1.54,0,0,0,1.85-1,1.52,1.52,0,0,0-1-1.85l-2.08-.43a1.54,1.54,0,0,0-1.85,1,1.51,1.51,0,0,0,1.05,1.85Z" transform="translate(0 20)"/><path class="cls-14" d="M77.29,201.16a1.5,1.5,0,0,0,0-3,1.5,1.5,0,0,0,0,3Z" transform="translate(0 20)"/></g></svg>