<svg xmlns="http://www.w3.org/2000/svg" xmlns:xlink="http://www.w3.org/1999/xlink" viewBox="0 0 739 531.89"><defs><style>.cls-1{fill:url(#linear-gradient);}.cls-2{fill:#e6ddef;}.cls-3{fill:#023456;}.cls-4{fill:#f5f1f9;}.cls-5{fill:#72a5c8;}.cls-6{fill:#512082;}.cls-11,.cls-39,.cls-7{fill:none;}.cls-11,.cls-7{stroke:#023456;}.cls-11,.cls-39,.cls-40,.cls-7{stroke-miterlimit:10;}.cls-7{stroke-width:3px;}.cls-8{fill:#9779b4;}.cls-9{fill:#01548a;}.cls-10{fill:#355d78;}.cls-12{fill:#0162a1;}.cls-13{fill:#0283d7;}.cls-14{fill:#6dbdf1;}.cls-15{fill:#0191ee;}.cls-16{fill:#718999;}.cls-17{fill:#aac9de;}.cls-18{fill:#bbd4e5;}.cls-19{fill:#55656f;}.cls-20{fill:#9a66ce;}.cls-21{fill:#ae85d8;}.cls-22{fill:#c9ade5;}.cls-23{fill:#744d9b;}.cls-24{fill:#d6e5ef;}.cls-25{fill:#c9ddea;}.cls-26{fill:#85adc7;}.cls-27{fill:#3476a1;}.cls-28{fill:#aec8d9;}.cls-29{fill:#275979;}.cls-30{fill:#6798b9;}.cls-31{fill:#b8c7d1;}.cls-32{fill:#4d728b;}.cls-33{fill:#94aab9;}.cls-34{fill:#ddccef;}.cls-35{fill:#5d91b4;}.cls-36{fill:#bed3e1;}.cls-37{fill:#9ebdd2;}.cls-38{fill:#a1c3da;}.cls-39{stroke:#5d91b4;}.cls-40{fill:#fff;stroke:#3476a1;}</style><linearGradient id="linear-gradient" x1="1976.46" y1="411.29" x2="2308.96" y2="411.29" gradientTransform="translate(-1734.52)" gradientUnits="userSpaceOnUse"><stop offset="0.44" stop-color="#c2abd3"/><stop offset="0.59" stop-color="#665eb9"/></linearGradient></defs><title>escena-5</title><g id="Suelo"><g id="Suelo-2" data-name="Suelo"><path class="cls-1" d="M0,290.69v42.57L369.28,517.7c37.83,18.92,38.1,18.92,75.94,0L739,370.92V328.21l-331.82,165Z"/><path class="cls-2" d="M29.12,309.61c-37.83-18.92-37.83-18.92,0-37.84L294,139.35c37.83-18.92,37.83-18.92,75.67,0L710.18,309.67c37.83,18.86,37.83,18.86,2.54,36l-267.4,134.2c-34.73,17.36-37.83,18.91-75.51-.09Z"/></g></g><g id="Escenario"><g id="Pizarra"><polygon class="cls-3" points="295 105.08 111.27 197.07 111.2 94.85 295 2.85 295 105.08"/><polygon class="cls-4" points="291 103.03 115 187.74 115 99.96 291 12.19 291 103.03"/><polygon class="cls-5" points="295.4 2.85 289.69 0 105 91.65 105.08 193.9 111.46 197.07 111.49 94.85 295.4 2.85"/><polygon class="cls-6" points="230 98.43 189.36 118.87 189.23 98.42 230 77.99 230 98.43"/><line class="cls-7" x1="193.18" y1="118.87" x2="186.02" y2="129.96"/><line class="cls-7" x1="234.06" y1="74.41" x2="248.24" y2="56.66"/><polygon class="cls-8" points="268 55.44 254 62.48 254 48.4 268 41.35 268 55.44"/><polygon class="cls-9" points="261 74.67 254 78.25 254 71.08 261 67.5 261 74.67"/><polygon class="cls-10" points="261 84.89 254 88.47 254 81.3 261 77.72 261 84.89"/><polygon class="cls-10" points="261 95.11 254 98.69 254 91.52 261 87.94 261 95.11"/><line class="cls-11" x1="266.15" y1="67.49" x2="277.43" y2="62.48"/><line class="cls-11" x1="266.15" y1="70.05" x2="277.43" y2="65.03"/><line class="cls-11" x1="266.15" y1="72.61" x2="277.43" y2="67.59"/><line class="cls-11" x1="266.15" y1="78.23" x2="277.43" y2="73.21"/><line class="cls-11" x1="266.15" y1="80.78" x2="277.43" y2="75.77"/><line class="cls-11" x1="266.15" y1="83.34" x2="277.43" y2="78.32"/><line class="cls-11" x1="266.15" y1="88.45" x2="277.43" y2="83.43"/><line class="cls-11" x1="266.15" y1="91" x2="277.43" y2="85.99"/><line class="cls-11" x1="266.15" y1="93.56" x2="277.43" y2="88.54"/><polygon class="cls-12" points="159 104.53 146 110.52 146 98.53 159 92.53 159 104.53"/><polygon class="cls-13" points="139 113.72 126 119.72 126 107.73 139 101.73 139 113.72"/><polygon class="cls-14" points="163 127.52 151 133.52 151 121.53 163 115.53 163 127.52"/><polygon class="cls-15" points="145 152.57 132 158.56 132 146.57 145 140.57 145 152.57"/><polygon class="cls-8" points="182 126.2 162 136.81 162 150.9 182 140.28 182 126.2"/><line class="cls-7" x1="166" y1="97.62" x2="187" y2="97.62"/><line class="cls-7" x1="186.02" y1="110.52" x2="168.97" y2="118.87"/><line class="cls-11" x1="129.22" y1="133.52" x2="147.62" y2="125.85"/><path class="cls-11" d="M146.19,129"/><path class="cls-11" d="M130.42,136"/><path class="cls-11" d="M147,133.16"/><path class="cls-11" d="M130.17,140.39"/><line class="cls-11" x1="129.22" y1="136.59" x2="147.62" y2="128.92"/><line class="cls-11" x1="129.22" y1="139.65" x2="147.62" y2="131.99"/><line class="cls-11" x1="162.9" y1="141.79" x2="181.3" y2="132.62"/><line class="cls-11" x1="163" y1="139.3" x2="181.4" y2="130.13"/><line class="cls-11" x1="177.44" y1="80.44" x2="195.84" y2="71.27"/><line class="cls-11" x1="181.93" y1="81.52" x2="200.33" y2="72.35"/><line class="cls-11" x1="197.73" y1="70.44" x2="204.12" y2="67.26"/><line class="cls-11" x1="205.42" y1="66.72" x2="223.82" y2="57.55"/><line class="cls-11" x1="202.34" y1="71.46" x2="208.71" y2="68.28"/><line class="cls-11" x1="210.51" y1="67.37" x2="216.89" y2="64.19"/><line class="cls-11" x1="182.94" y1="85.12" x2="201.33" y2="75.95"/></g><g id="Maseta"><polygon class="cls-16" points="40.98 234.45 80.99 254.46 121 234.45 80.99 214.44 40.98 234.45"/><polygon class="cls-17" points="121 234.45 121 247.46 80.99 267.46 40.98 247.46 40.97 234.45 80.99 254.46 121 234.45"/><polygon class="cls-18" points="114 250.96 108.08 295.43 80.99 308.84 51.89 294.47 47.98 250.96 81 267.46 114 250.96"/><polygon class="cls-19" points="46.48 234.22 80.96 251.46 115.44 234.22 80.96 216.97 46.48 234.22"/><path class="cls-20" d="M81.17,239.22s16.4-9.21,21.57-15.11,8.36-37.93,8.36-37.93-20.23,13.19-22.61,17.89S81.17,239.22,81.17,239.22Z"/><path class="cls-21" d="M77.84,152.2S93,188.94,93,195.71s-11.8,43.51-11.8,43.51S66,209.94,65,199.63,77.84,152.2,77.84,152.2Z"/><path class="cls-22" d="M42.87,188.55S63.4,199.1,67.63,203.86s13.54,35.36,13.54,35.36-20.49-10.4-25.87-18.56S42.87,188.55,42.87,188.55Z"/><polygon class="cls-23" points="89.05 225.87 98.37 218.51 102.99 200.14 97.3 217.43 89.05 225.87"/><polygon class="cls-23" points="79 173.03 81.21 196.4 81.18 224.1 79 195.71 79 173.03"/><polygon class="cls-23" points="51.72 200.92 58.79 219.98 74.51 229.41 59.67 218.51 51.72 200.92"/><polygon class="cls-24" points="47.98 250.96 81 267.46 80.99 308.84 51.89 294.47 47.98 250.96"/><polygon class="cls-25" points="82 254.46 82 267.46 41.48 247.46 41.73 234.45 82 254.46"/></g><g id="Mueble"><polygon class="cls-26" points="533.96 205.21 660.74 268.6 703 247.47 576.22 184.08 533.96 205.21"/><polygon class="cls-27" points="661 353.11 703.13 331.61 703.19 247.47 661 268.6 661 353.11"/><polygon class="cls-28" points="534 289.73 661 353.11 661 268.6 534 205.21 534 289.73"/><polygon class="cls-27" points="597 267.59 652 295.3 652 277.05 597 249.58 597 267.59"/><polygon class="cls-29" points="597.21 249.58 600.01 248.39 655 275.45 655 293.71 652 295.3 652 277.05 597.21 249.58"/><polygon class="cls-28" points="617.23 265.48 613.2 267.62 626.95 274.58 631.14 272.42 628.75 271.21 626.93 272.17 617.59 267.23 619.18 266.45 617.23 265.48"/><polygon class="cls-26" points="631 272.42 626.77 274.58 613 267.62 613 268.99 626.63 275.85 631 273.62 631 272.42"/><polygon class="cls-27" points="535 238.01 590 265.72 590 247.47 535 220 535 238.01"/><polygon class="cls-29" points="535.04 220 537.93 218.81 593 245.87 593 264.13 590 265.72 590 247.47 535.04 220"/><polygon class="cls-28" points="557.01 236.95 552.98 239.09 566.73 246.06 570.92 243.9 568.53 242.69 566.71 243.65 557.37 238.7 558.97 237.92 557.01 236.95"/><polygon class="cls-26" points="571 243.9 566.77 246.06 553 239.09 553 240.47 566.63 247.33 571 245.1 571 243.9"/><polygon class="cls-27" points="596 296.11 651 323.83 651 305.57 596 278.11 596 296.11"/><polygon class="cls-29" points="596.18 278.11 599 276.92 654 303.98 654 322.23 651 323.83 651 305.57 596.18 278.11"/><polygon class="cls-28" points="618.28 295.06 614.25 297.2 628.01 304.16 632.19 302 629.81 300.79 627.98 301.75 618.64 296.81 620.24 296.03 618.28 295.06"/><polygon class="cls-26" points="632 302 627.77 304.16 614 297.2 614 298.57 627.63 305.44 632 303.2 632 302"/><polygon class="cls-27" points="535 267.59 590 295.3 590 277.05 535 249.58 535 267.59"/><polygon class="cls-29" points="535.04 249.58 537.93 248.39 593 275.45 593 293.71 590 295.3 590 277.05 535.04 249.58"/><polygon class="cls-28" points="557.01 266.53 552.98 268.67 566.73 275.64 570.92 273.48 568.53 272.27 566.71 273.23 557.37 268.28 558.97 267.5 557.01 266.53"/><polygon class="cls-26" points="571 273.48 566.77 275.64 553 268.67 553 270.05 566.63 276.91 571 274.68 571 273.48"/><g id="Libros"><polygon class="cls-30" points="564.56 211 593.95 225.69 615.99 214.67 586.6 199.97 564.56 211"/><polygon class="cls-31" points="565 211 565 214.3 593.67 228.89 615 218.34 615 214.67 593.67 225.69 565 211"/><polygon class="cls-32" points="568.23 207.97 594.75 221.23 614.64 211.28 588.13 198.02 568.23 207.97"/><polygon class="cls-33" points="569 207.97 569 210.95 595.31 224.11 615 214.6 615 211.28 595.31 221.23 569 207.97"/><polygon class="cls-20" points="569.15 204.12 591.13 215.11 607.61 206.87 585.63 195.88 569.15 204.12"/><polygon class="cls-34" points="569 204.12 569 206.59 591.25 217.5 608 209.61 608 206.87 591.25 215.11 569 204.12"/></g></g></g><g id="Personajes"><path id="Brazo_2" data-name="Brazo 2" class="cls-35" d="M431.68,214.39l5.66-14,14.93,12.71s-4.5,8.92-5.58,11.28l-13.87,28.74c-1.05,4.23-6,6.65-11,5.4l-.39-.09c-5-1.25-8.27-5.68-7.23-9.91Z"/><g id="Cliente"><path class="cls-27" d="M346.65,170.86a25.22,25.22,0,1,0,29.76-19.65A25.21,25.21,0,0,0,346.65,170.86Z"/><path class="cls-27" d="M376.89,274.12h-.41c-5.24,0-9.48,3.8-9.48,9V358a9.15,9.15,0,0,0,9.48,9.09h.41A8.84,8.84,0,0,0,386,358V283.16A8.8,8.8,0,0,0,376.89,274.12Z"/><path class="cls-27" d="M356.49,267.12h-.41c-5.24,0-9.08,4.68-9.08,9.92v71.81a9,9,0,0,0,9.08,9.27h.41a9.32,9.32,0,0,0,9.51-9.27V277C366,271.8,361.73,267.12,356.49,267.12Z"/><path class="cls-27" d="M400,239.88c2.2,3.73.32,8.91-4.19,11.57l-.35.21c-4.52,2.66-10,1.79-12.16-1.94L366.48,221.1c-2.2-3.73-.32-8.91,4.19-11.57l.35-.21c4.52-2.66,10-1.79,12.16,1.94Z"/><path class="cls-27" d="M390.22,256.78c-4.21-1.08-6.59-6-5.3-11.06l.1-.39c1.29-5,5.75-8.22,10-7.14l32.35,8.3c4.22,1.09,6.6,6,5.31,11.06l-.1.39c-1.29,5-5.75,8.22-10,7.14Z"/><path class="cls-36" d="M388.21,271.43a20.92,20.92,0,0,1-21,20.88h0a20.92,20.92,0,0,1-20.87-21l.1-47.06a20.93,20.93,0,0,1,21-20.88h0a20.92,20.92,0,0,1,20.87,21Z"/><path class="cls-27" d="M401.71,290.43a8.56,8.56,0,0,1-2.72,11.8l-.18.11a8.56,8.56,0,0,1-11.8-2.72l-19-30.46a8.56,8.56,0,0,1,2.72-11.8l.18-.11a8.56,8.56,0,0,1,11.8,2.72Z"/><path class="cls-27" d="M385,263.61c0,4.73-4.68,8.51-9.41,8.51h-.67c-4.73,0-8.92-3.78-8.92-8.51V227.34c0-4.73,4.19-8.22,8.92-8.22h.67c4.73,0,9.41,3.49,9.41,8.22Z"/><path class="cls-37" d="M366,226.5v9.85l19,.46V225C383.51,216,368,215.41,366,226.5Z"/></g><g id="Ceo"><path class="cls-37" d="M455.07,189.75c-8.53-6.23-13.21,3.24-13.21,3.24l-4.52,7.35,14.93,12.71,6.1-9.91S463.59,196,455.07,189.75Z"/><path class="cls-35" d="M484.51,147.4a25.22,25.22,0,1,1-29.76-19.65A25.22,25.22,0,0,1,484.51,147.4Z"/><path class="cls-27" d="M455.43,248.12H455c-5.24,0-10,4.3-10,9.54v74.87c0,5.24,4.79,9.59,10,9.59h.4a9.65,9.65,0,0,0,9.57-9.59V257.66A9.6,9.6,0,0,0,455.43,248.12Z"/><path class="cls-35" d="M486,257.66a9.25,9.25,0,0,0-9.15-9.54h-.4a9.5,9.5,0,0,0-9.45,9.54v40.19c0,.27,0,.55,0,.82s0,.54,0,.81v40.19a9.42,9.42,0,0,0,9.45,9.45h.4a9.17,9.17,0,0,0,9.15-9.45V299.48c0-.27,0-.54,0-.81s0-.55,0-.82Z"/><path class="cls-36" d="M446,251a20.93,20.93,0,0,0,21,20.88h0a20.92,20.92,0,0,0,20.87-21l-.1-47.07a20.92,20.92,0,0,0-21-20.87h0a20.92,20.92,0,0,0-20.87,21Z"/><path class="cls-35" d="M450.58,224.85c-2.2,3.73-.41,8.64,4.11,11.3l.35.21c4.51,2.66,10,1.79,12.15-1.94l16.87-28.62c2.2-3.73.32-8.91-4.2-11.57l-.35-.21c-4.51-2.66-9.95-1.79-12.15,1.94Z"/><path class="cls-35" d="M460.8,242.68c3.42-2.7,10.53-12.46,7.31-16.53L457.27,220c-3.22-4.06-6.67,5.68-8.37,7.64l-26.2,20.72c-3.41,2.7-3.57,8.19-.36,12.26l.25.32c3.22,4.06,8.6,5.17,12,2.47Z"/><path class="cls-3" d="M482,147.58l-17.35,8.68-27.14-13.57c-.84-.42-1.38-.38-1.38.71s0,3.47,0,4.31a3.4,3.4,0,0,0,1.66,2.43s8.34,4.83,9.33,4.48c1.24-.44,2-4,2.61-4.2a1.17,1.17,0,0,1,1.15.72c.19.73.16,5.44,1.16,5.94l11.31,5.66c.75.65,1.27-5.05,1.27-5.05.87-.76,16.84-8.4,17.64-8.68"/><path class="cls-38" d="M447,153.59c-.39.14-9.37-4.27-9.71-5s-.35-4.58,0-4.8,11.5,5.62,11.58,6.1A10.08,10.08,0,0,1,447,153.59Z"/><path class="cls-38" d="M462.72,161.37c-.39.14-10-4.56-10.33-5.31s-.68-4.65-.34-4.87,11.26,5.41,11.34,5.88S463.12,161.24,462.72,161.37Z"/><path class="cls-37" d="M480.5,192.48c-8.64-6.07-13.14,3.48-13.14,3.48L463,203.4l15.18,12.43,5.91-10S489.14,198.55,480.5,192.48Z"/></g><path class="cls-39" d="M517,76c-18.52,0-34.46,11.86-34.46,26.49v20.8l9.86-2.8c6.12,5.22,15.34,8.49,25.06,8.49,18.52,0,33.3-11.86,33.3-26.49S535.48,76,517,76Z"/><path class="cls-15" d="M499.51,102.35a49.07,49.07,0,0,1,7.88,12.73,1.51,1.51,0,0,0,2.59,0c5.39-11,13.11-21.6,22.8-29.15,1.53-1.19-.61-3.3-2.12-2.13-9.85,7.69-17.79,18.56-23.27,29.76H510a51.66,51.66,0,0,0-8.35-13.33c-1.3-1.44-3.42.69-2.12,2.12Z"/><path class="cls-40" d="M313,108c18.52,0,33.47,11.86,33.47,26.49v20.8l-8.87-2.8c-6.13,5.22-14.85,8.49-24.57,8.49-18.52,0-33.55-11.86-33.55-26.49S294.51,108,313,108Z"/><path class="cls-15" d="M311.51,119.58V149.4a1.5,1.5,0,0,0,3,0V119.58a1.5,1.5,0,0,0-3,0Z"/><path class="cls-15" d="M321.47,126.31c-2.4-4.41-7-6.77-11.81-5-4,1.49-5.53,6.81-3.32,10.27,2.55,4,8.81,2.24,12.49,4.14,4.13,2.13-3.15,5.1-4.85,5.23-2.36.18-5.66-.5-6.68-2.93-.73-1.76-3.63-1-2.89.8,3,7.28,16.36,6.91,18.47-1,1-3.84-4.13-5.74-6.95-6.12s-8.33.08-7.53-4.48c.51-2.93,3.41-4,6.06-3.43,2,.43,3.49,2.26,4.42,4s3.51.19,2.59-1.51Z"/></g></svg>