<svg xmlns="http://www.w3.org/2000/svg" xmlns:xlink="http://www.w3.org/1999/xlink" viewBox="0 0 836.09 544.26"><defs><style>.cls-1{fill:url(#linear-gradient);}.cls-2{fill:#e6ddef;}.cls-3{fill:#85adc7;}.cls-4{fill:#3476a1;}.cls-5{fill:#aec8d9;}.cls-6{fill:#275979;}.cls-7{fill:#6798b9;}.cls-8{fill:#b8c7d1;}.cls-9{fill:#4d728b;}.cls-10{fill:#94aab9;}.cls-11{fill:#0283d7;}.cls-12{fill:#c5e5f9;}.cls-13{fill:#718999;}.cls-14{fill:#aac9de;}.cls-15{fill:#bbd4e5;}.cls-16{fill:#55656f;}.cls-17{fill:#6dbdf1;}.cls-18{fill:#744d9b;}.cls-19{fill:#d6e5ef;}.cls-20{fill:#c9ddea;}.cls-21{fill:#7ba7c5;}.cls-22{fill:#f5f1f9;}.cls-23{fill:#486274;}.cls-24,.cls-35{fill:#023456;}.cls-25{fill:#01548a;}.cls-26{fill:#fff;stroke:#3476a1;}.cls-26,.cls-35,.cls-36,.cls-38,.cls-40{stroke-miterlimit:10;}.cls-27{fill:#435764;}.cls-28{fill:#a5afb5;}.cls-29{fill:#697983;}.cls-30{fill:#648295;}.cls-31{fill:#5d91b4;}.cls-32{fill:#a1c3da;}.cls-33{fill:#e3dbeb;}.cls-34{fill:#512082;}.cls-35,.cls-36,.cls-38{stroke:#023456;}.cls-35{stroke-width:0.5px;}.cls-36,.cls-38,.cls-40,.cls-41{fill:none;}.cls-36{stroke-width:2px;}.cls-37{fill:#355d78;}.cls-39{fill:#0191ee;}.cls-40{stroke:#0191ee;}</style><linearGradient id="linear-gradient" x1="2008.21" y1="407.8" x2="2384.36" y2="407.8" gradientTransform="translate(-1734.52)" gradientUnits="userSpaceOnUse"><stop offset="0.44" stop-color="#c2abd3"/><stop offset="0.59" stop-color="#665eb9"/></linearGradient></defs><title>escena-2</title><g id="Suelo"><path class="cls-1" d="M0,271.33V319.5L417.86,528.21c42.81,21.41,43,21.41,85.82,0L836,362.12V313.79L460.64,500.51Z"/><path class="cls-2" d="M33,292.73c-42.82-21.4-42.82-21.4,0-42.8L332.65,100.08c42.82-21.41,42.82-21.41,85.63,0L803.61,292.81c42.81,21.33,42.81,21.33,2.88,40.74L503.91,485.39c-39.3,19.65-42.81,21.41-85.44-.09Z"/></g><g id="Escenario"><g id="Mueble"><polygon class="cls-3" points="219.34 143.75 95.4 205.72 54.09 185.07 178.04 123.1 219.34 143.75"/><polygon class="cls-4" points="95 288.35 53.88 267.33 54.09 185.07 95.4 205.72 95 288.35"/><polygon class="cls-5" points="219 226.38 95 288.35 95 205.72 219.34 143.75 219 226.38"/><polygon class="cls-4" points="157 204.74 104 231.83 104 213.98 157 187.13 157 204.74"/><polygon class="cls-6" points="157 187.13 154.78 185.97 101 212.42 101 230.27 104 231.83 104 213.98 157 187.13"/><polygon class="cls-5" points="136.94 202.67 140.88 204.76 127.83 211.57 124 209.46 125.68 208.28 127.46 209.22 136.59 204.38 135.03 203.62 136.94 202.67"/><polygon class="cls-3" points="124 209.46 127.83 211.57 141 204.76 141 206.1 127.97 212.82 124 210.63 124 209.46"/><polygon class="cls-4" points="218 175.82 164 202.91 164 185.06 218 158.21 218 175.82"/><polygon class="cls-6" points="218.01 158.21 215.52 157.05 162 183.5 162 201.35 164 202.91 164 185.06 218.01 158.21"/><polygon class="cls-5" points="196.82 174.78 200.75 176.88 187.31 183.69 183.22 181.57 185.55 180.39 187.33 181.33 196.46 176.49 194.9 175.73 196.82 174.78"/><polygon class="cls-3" points="183 181.57 187.33 183.69 201 176.88 201 178.22 187.47 184.93 183 182.75 183 181.57"/><polygon class="cls-4" points="159 232.62 105 259.71 105 241.87 159 215.02 159 232.62"/><polygon class="cls-6" points="159 215.02 155.79 213.85 102 240.31 102 258.16 105 259.71 105 241.87 159 215.02"/><polygon class="cls-5" points="136.91 231.59 141 233.68 127.6 240.68 123 238.38 125.64 237.2 127.43 238.14 136.56 233.3 135 232.54 136.91 231.59"/><polygon class="cls-3" points="123 238.38 127.52 240.49 141 233.68 141 235.02 127.66 241.74 123 239.53 123 238.38"/><polygon class="cls-4" points="218 204.74 164 231.83 164 213.98 218 187.13 218 204.74"/><polygon class="cls-6" points="218.01 187.13 215.52 185.97 162 212.42 162 230.27 164 231.83 164 213.98 218.01 187.13"/><polygon class="cls-5" points="196.82 203.7 200.75 205.79 187.31 212.61 183.22 210.49 185.55 209.31 187.33 210.25 196.46 205.41 194.9 204.65 196.82 203.7"/><polygon class="cls-3" points="183 210.49 187.33 212.61 201 205.79 201 207.14 187.47 213.85 183 211.67 183 210.49"/><g id="Mesa_2" data-name="Mesa 2"><polygon class="cls-7" points="205.75 141.89 167.3 161.11 137 146.7 176.92 127.47 205.75 141.89"/><polygon class="cls-8" points="206 141.89 206 146.22 166.7 165.29 137 151.5 137 146.7 166.69 161.11 206 141.89"/><polygon class="cls-9" points="200.95 137.93 165.66 155.28 139 142.26 174.92 124.92 200.95 137.93"/><polygon class="cls-10" points="201 137.93 201 141.83 165.66 159.05 139 146.6 139 142.26 165.66 155.28 201 137.93"/><polygon class="cls-11" points="199.75 132.89 170.41 147.27 148 136.49 178.18 122.11 199.75 132.89"/><polygon class="cls-12" points="200 132.89 200 136.13 170.41 150.4 148 140.08 148 136.49 170.41 147.27 200 132.89"/></g></g><g id="Planta"><polygon class="cls-13" points="798.63 255.69 757.3 276.36 715.97 255.69 757.3 235.03 798.63 255.69"/><polygon class="cls-14" points="716 255.69 716 269.13 756.99 289.79 798 269.13 798 255.69 757 276.36 716 255.69"/><polygon class="cls-15" points="723.21 272.74 729.32 318.68 757.3 332.52 787.35 317.68 791.39 272.74 757.29 289.79 723.21 272.74"/><polygon class="cls-16" points="792.95 255.45 757.33 273.26 721.71 255.45 757.33 237.64 792.95 255.45"/><path class="cls-17" d="M757.11,260.62s-16.93-9.51-22.27-15.61-8.64-39.17-8.64-39.17,20.89,13.62,23.36,18.48S757.11,260.62,757.11,260.62Z"/><path class="cls-12" d="M760.55,170.75s-15.63,37.94-15.63,44.93,12.19,44.94,12.19,44.94,15.68-30.24,16.66-40.89S760.55,170.75,760.55,170.75Z"/><path class="cls-11" d="M796.67,208.28s-21.21,10.91-25.57,15.82-14,36.52-14,36.52,21.17-10.74,26.72-19.17S796.67,208.28,796.67,208.28Z"/><polygon class="cls-18" points="748.98 246.83 739.35 239.23 734.57 220.25 740.46 238.11 748.98 246.83"/><polygon class="cls-18" points="760 192.25 757.39 216.4 757.58 245.01 760 215.68 760 192.25"/><polygon class="cls-18" points="787.53 221.06 780.23 240.75 763.99 250.49 779.32 239.23 787.53 221.06"/><polygon class="cls-19" points="791.39 272.74 757.29 289.79 757.3 332.52 787.35 317.68 791.39 272.74"/><polygon class="cls-20" points="757 276.36 757 289.79 798.48 269.13 798.41 255.69 757 276.36"/></g></g><g id="Pizarra"><g id="m1"><polygon class="cls-21" points="689 251.13 682.47 247.74 658 259.93 658 113.58 438.54 3.83 438.61 193.22 408.93 208.51 414.21 211.15 468.17 184.18 463 180.95 443.57 191.59 443.35 103.76 651.16 207.66 651.08 263.46 609.36 284.32 616.21 287.75 689 251.13"/><polygon class="cls-22" points="650 197.41 444 94.22 444 15.21 650 118.64 650 197.41"/><polygon class="cls-23" points="447.77 105.97 448.57 193.94 443 196.76 443.35 103.76 447.77 105.97"/><polygon class="cls-23" points="468 184.18 468 187.74 414.55 215.38 409 212.65 409 208.51 414.31 211.15 468 184.18"/><polygon class="cls-23" points="689 251.13 689 258.44 615.92 293.39 609.3 290.19 609.32 284.32 616.21 287.75 689 251.13"/><polygon class="cls-23" points="443.49 0 662.47 110.38 662.52 264.55 657.52 267.21 658 113.58 438.61 3.83 443.49 0"/></g></g><g id="Personas"><g id="Barbas"><polygon points="526.36 117.87 523.9 126.25 522.62 126.63 525.38 117.56 526.36 117.87"/><path d="M525.6,104.39a12.42,12.42,0,0,1,3.25,1c2.16.91,4.57,4.26,4,8.43a4.33,4.33,0,0,1-4.41,4l2.32-5.45Z"/><path class="cls-24" d="M531.33,111.18c.75,3.79-1.08,6.84-4.08,6.8a5,5,0,0,1-1.87-.42l-2.76,9.07-2.23-1.56,2.75-9a9.7,9.7,0,0,1-2.67-5c-.75-3.79,1.07-6.83,4.07-6.79S530.58,107.39,531.33,111.18Z"/><path class="cls-10" d="M524.79,105.7c-2.4,0-3.86,2.4-3.26,5.43s3,5.52,5.42,5.55,3.86-2.4,3.27-5.44S527.19,105.73,524.79,105.7Z"/><path class="cls-4" d="M451.33,75.45a22.71,22.71,0,1,0,26.8-17.7A22.71,22.71,0,0,0,451.33,75.45Z"/><path class="cls-24" d="M430.21,226.65S443.57,203.13,445,201l-.09-29a9.26,9.26,0,0,1,18.5-.06s-.49,36.62-5.95,43.45l-11.05,20.38c-1.77,3.27-6.83,3.86-11.29,1.33S428.44,229.92,430.21,226.65Z"/><path class="cls-25" d="M457.36,164.06c4.45-2,10.22-.91,11.71,3.06l10.82,28.78c.22.6,2.65,7.38,2.5,9.86l-2.26,37.68a10.28,10.28,0,0,1-10.28,9.29,10,10,0,0,1-9.1-10.24l2.2-36.6c-.15-1.23-11.89-30.5-11.89-30.5C449.57,171.42,452.91,166.11,457.36,164.06Z"/><path class="cls-4" d="M479.34,173.85A18.86,18.86,0,0,1,458.12,190h0A18.86,18.86,0,0,1,442,168.75l5.74-42A18.83,18.83,0,0,1,469,110.64h0a18.83,18.83,0,0,1,16.12,21.21Z"/><path class="cls-25" d="M465.47,125.55c2.59-3.2,8-4.28,11.37-1.58l19.47,15.56,19.47-16.86c3.29-2.84,8.71-2,11.41,1.09s2.78,8.55-.5,11.39l-23.84,20.64a7.27,7.27,0,0,1-4.37,1.73,8,8,0,0,1-7.6-1l-24.52-19.59C463,134.21,462.88,128.74,465.47,125.55Z"/><path class="cls-24" d="M451.33,75.45s-1.55,8.91,1.35,15,12.59,12.06,17,12.22,11.9,1.74,19-5.35c.95-1,2.21-2.43,5.1-6.89s2.55-12.71,2.55-12.71l-3.72.78s-2.58,8.57-4.7,9.76-6.48-.51-8.51-1a57,57,0,0,0-12.23-.51c-2.72.34-7.22,2.47-8.75,1.7s-4.13-12.28-4.13-12.28Z"/><polygon class="cls-4" points="467.97 92.98 478.36 92.98 477.07 96.29 474.61 96.98 470.88 96.98 468.91 95.9 467.97 92.98"/><path class="cls-26" d="M417.08,17.89c18.52,0,33.42,11.86,33.42,26.48V65.18l-8.82-2.81c-6.13,5.22-14.82,8.49-24.54,8.49-18.52,0-33.56-11.85-33.56-26.49S398.56,17.89,417.08,17.89Z"/></g><g id="Ceo"><polygon class="cls-27" points="285 303.56 352 336.13 352 292.7 285 260.13 285 303.56"/><polygon class="cls-28" points="352 336.13 372 325.08 372 284.08 303.87 249.91 285 260.13 352 292.7 352 336.13"/><polygon class="cls-27" points="232.71 323.09 288 295.76 288 227.43 233.39 254.76 232.71 323.09"/><polygon class="cls-29" points="288.23 227.43 274.12 220.59 219 247.93 219 300.5 233.12 295.76 233.34 254.76 288.23 227.43"/><polygon class="cls-3" points="288.28 322.27 288.23 336.32 347.52 305.71 288.28 276.37 242.62 299.42 288.28 322.27"/><polygon class="cls-30" points="347.52 305.71 348 327.94 288 357.72 288 336.32 347.52 305.71"/><polygon class="cls-27" points="206 343.93 272 376.5 272 333.07 206 300.5 206 343.93"/><polygon class="cls-28" points="272 376.5 293 365.45 293 324.45 224.55 290.29 206 300.5 272 333.07 272 376.5"/><path class="cls-4" d="M312.83,207.7a22.42,22.42,0,1,1-22.42-22.42A22.42,22.42,0,0,1,312.83,207.7Z"/><path class="cls-31" d="M287.76,239.79c2.95-2.88,8.43-3.32,11.48-.24l17.52,17.72,21.31-14.48c3.59-2.44,8.88-1,11.2,2.41s1.77,8.82-1.82,11.26l-26.09,17.72a7.27,7.27,0,0,1-4.53,1.21,8,8,0,0,1-7.44-1.89l-22.07-22.32C284.28,248.1,284.82,242.66,287.76,239.79Z"/><path class="cls-25" d="M333,348.91c-4.12,0-8.38-3.44-8.44-7.77l-.36-24.93-21.72-10.88c-4.29-.73-9.33-6-8.66-10.07s7.46-6.22,11.75-5.49l27,11.06a7.31,7.31,0,0,1,4.11,2.28,7.9,7.9,0,0,1,4,6.51l.45,31.38C341.28,345.33,337.12,348.88,333,348.91Z"/><path class="cls-25" d="M315,360.91c-4.12,0-8.38-3.44-8.44-7.77l-.36-24.93-21.72-10.88c-4.29-.73-9.33-6-8.66-10.07s7.46-6.22,11.75-5.49l27,11.06a7.31,7.31,0,0,1,4.11,2.28,7.9,7.9,0,0,1,4,6.51l.45,31.38C323.28,357.33,319.12,360.88,315,360.91Z"/><path class="cls-4" d="M301.84,291.08a18.83,18.83,0,0,1-18.42,19.24h0a18.84,18.84,0,0,1-19.25-18.42l-.93-42.38a18.83,18.83,0,0,1,18.42-19.24h0a18.82,18.82,0,0,1,19.25,18.42Z"/><path class="cls-6" d="M278,245.29c4.11-.24,8.53,3,8.81,7.35l1.58,24.87L314,280.58c4.32.52,7.34,5.1,6.87,9.17s-4.45,7.81-8.77,7.3l-31.31-3.76a7.27,7.27,0,0,1-4.21-2.07,7.94,7.94,0,0,1-4.37-6.3l-2-31.33C269.92,249.27,273.9,245.52,278,245.29Z"/><path class="cls-24" d="M271.43,205.73s1.8-1.69,2.57-1.31l14.66,7.34,22.93-11.47c.72-.36,1.17-.32,1.17.6s0,2.93,0,3.64a2.86,2.86,0,0,1-1.41,2.05s-7,4.09-7.88,3.79c-1-.37-1.71-3.35-2.2-3.55a1,1,0,0,0-1,.61c-.16.62-.13,4.6-1,5l-9.55,4.78c-.63.55-1.07-4.27-1.07-4.27-.74-.64-14.23-7.09-14.91-7.33S272,206.8,272,206.8Z"/><path class="cls-32" d="M303.65,209.5c.33.11,7.92-3.61,8.21-4.24s.29-3.86,0-4-9.72,4.75-9.79,5.15A8.53,8.53,0,0,0,303.65,209.5Z"/><path class="cls-32" d="M290.32,216.07c.34.12,8.44-3.85,8.73-4.48s.58-3.94.29-4.12-9.51,4.57-9.58,5S290,216,290.32,216.07Z"/><path class="cls-26" d="M336.82,139.89c-18.52,0-33.32,11.86-33.32,26.48v20.81l8.72-2.81a37.73,37.73,0,0,0,24.49,8.49c18.52,0,33.59-11.85,33.59-26.49S355.34,139.89,336.82,139.89Z"/><polygon class="cls-27" points="331.5 176.12 333.44 177.08 337.15 177.82 333.28 177.47 331.5 176.12"/><polygon class="cls-27" points="331.14 177.33 334.05 178.62 336.39 178.91 334.05 179.11 331.14 177.33"/><polygon class="cls-27" points="330.83 178.37 332.5 179.42 335.05 179.64 332.48 179.8 330.83 178.37"/><polygon class="cls-27" points="331.48 179.74 333.62 180.68 335.94 180.38 333.55 181.24 331.48 179.74"/><polygon class="cls-27" points="330.81 180.03 332.69 181.66 334.38 181.88 332.56 182.11 330.81 180.03"/><polygon class="cls-28" points="334.93 183.25 329.73 181.81 331.11 171.57 339.88 174.21 334.93 183.25"/><path class="cls-18" d="M344.55,171.82a8.4,8.4,0,1,1-5.75-10A8.13,8.13,0,0,1,344.55,171.82Z"/><polygon class="cls-33" points="333.92 163 330.98 165.17 330 167.43 329.91 170.29 330.49 171.88 330.94 169.78 331.52 167.87 332.31 165.44 333.92 163"/><polygon class="cls-18" points="350.02 171.57 357.01 170.58 363.55 171.88 350.02 171.57"/><polygon class="cls-18" points="346.25 161.98 350.02 157.21 356.79 156.23 346.25 161.98"/><polygon class="cls-18" points="335.85 157.21 337.15 152.05 333.71 146.32 335.85 157.21"/><polygon class="cls-18" points="328.18 161.33 322.11 159.1 319.67 152.65 328.18 161.33"/></g><g id="mujer"><polygon class="cls-27" points="463 392.27 536 428.17 536 384.46 463.04 348.41 463 392.27"/><polygon class="cls-28" points="536 428.53 555 419.06 555 375.36 482.23 338.94 463.04 348.41 536 384.83 536 428.53"/><polygon class="cls-3" points="425.91 388.75 470.72 366.55 481.11 371.74 465.32 379.28 465.32 408.47 425.91 388.75"/><path class="cls-4" d="M494.84,407.08a18.83,18.83,0,0,1-18.42,19.24h0a18.84,18.84,0,0,1-19.25-18.42l-.93-42.38a18.84,18.84,0,0,1,18.42-19.25h0a18.84,18.84,0,0,1,19.25,18.43Z"/><polygon class="cls-27" points="479.81 459.4 538 430.26 538 357.43 479.77 386.56 479.81 459.4"/><polygon class="cls-29" points="538.16 357.43 523.43 350.14 465 379.28 465 451.98 479.76 459.4 479.81 386.56 538.16 357.43"/><circle class="cls-4" cx="475.07" cy="319.13" r="21.85" transform="translate(-86.51 429.4) rotate(-45)"/><polygon class="cls-27" points="384 430.08 457 465.98 457 422.27 384 385.85 384 430.08"/><polygon class="cls-28" points="457 465.98 476 456.51 476 412.81 403.36 376.38 384.11 385.85 457 422.27 457 465.98"/><path class="cls-25" d="M410.33,363.05c2.54-3.24,7.92-4.41,11.34-1.75l19.71,15.26,19.21-17.15c3.24-2.9,8.68-2.13,11.43.91s2.91,8.51-.33,11.4l-23.52,21a7.3,7.3,0,0,1-4.34,1.79,7.94,7.94,0,0,1-7.62-.89L411.4,374.4C408,371.74,407.79,366.28,410.33,363.05Z"/><path class="cls-34" d="M474.1,297.1c3.91.35,4.6-1.29,9.91,2.09s9.23,5.08,10.84,8.26,2.07,9.53,2.07,9.53,3.63-2,4.66-1.23a5.08,5.08,0,0,1,2.57,3.38A41.23,41.23,0,0,1,505,326c0,2.18-.56,8.17,0,10s1.52,5.53,2.35,7.7,2.41,2.44,1.67,4.36-1.89,1-3.59,1.5-2.3.87-3.43-.92-.58-2.37,0-5.64,0-7.39,0-8.68V326a14.23,14.23,0,0,0-2.5-4,1.72,1.72,0,0,0-2.5,0s-.77,5.33-3.37,8.68-1.39,2.76-4.84,5.47-6.18,4-9,4.34-6.38,1.6-7.5.32-2.93-3.34-5.72-6.62-2.79-3.27-3.55-6.71.91-2.68,0-5.91-9.78-8.05-9.78-8.05a39.06,39.06,0,0,1,3-8.06c1.73-2.94,4.11-4.48,6.77-6.13S470.18,296.74,474.1,297.1Z"/><path class="cls-26" d="M524.82,249.89c-18.52,0-33.32,11.86-33.32,26.48v20.81l8.72-2.81a37.73,37.73,0,0,0,24.49,8.49c18.52,0,33.59-11.85,33.59-26.49S543.34,249.89,524.82,249.89Z"/><path class="cls-35" d="M539.63,270.62l0-.39a4.61,4.61,0,0,0-.06-1.11,2.47,2.47,0,0,0-.86-1.43,4.06,4.06,0,0,0-2.09-.7,25,25,0,0,0-6,.56c-2.24.39-4.69.95-7.39,1.18a10.7,10.7,0,0,1-2,0,3.51,3.51,0,0,1-2-.76l-.21-.23c-.06-.06,0,0,0,0l0,0s0-.14-.1-.09l-.16.05a3,3,0,0,0-.33.16c-.5.26-1,.58-1.47.89A7.72,7.72,0,0,1,513.8,270a4.69,4.69,0,0,1-2.89-.65c-.78-.47-1.33-1-1.92-1.31a2,2,0,0,0-1.64,0,5.15,5.15,0,0,0-1,.54l-.33.23.3-.26a5.32,5.32,0,0,1,.93-.66,2.2,2.2,0,0,1,1.83-.2c.7.27,1.31.8,2.05,1.16a4.16,4.16,0,0,0,2.54.4,6.89,6.89,0,0,0,2.72-1.36c.47-.32,1-.67,1.51-1a4.23,4.23,0,0,1,.48-.24c.22-.11.45-.19.68-.29s.34.17.48.34l.09.16a.84.84,0,0,0,.11.18l.11.11a2.71,2.71,0,0,0,1.48.48,11.58,11.58,0,0,0,1.86,0c5.14-.5,9.91-1.78,13.49-1.21a4.29,4.29,0,0,1,2.24,1,2.72,2.72,0,0,1,.81,1.66,4.51,4.51,0,0,1-.07,1.14Z"/><path class="cls-35" d="M543,278.54A46.61,46.61,0,0,1,537.6,280a74.91,74.91,0,0,1-13.4,1.6,32.38,32.38,0,0,1-7.46-.63,10.76,10.76,0,0,1-3.12-1.16c-.22-.16-.44-.3-.64-.46a6.18,6.18,0,0,1-.51-.5c-.1-.09-.17-.36-.3-.2a.93.93,0,0,1-.2.1l-.3.13a5.16,5.16,0,0,1-2.39.08,13.14,13.14,0,0,0-1.73-.2,4.73,4.73,0,0,0-1.1.12l-.38.11.36-.15a4.7,4.7,0,0,1,1.11-.24,12,12,0,0,1,1.77,0,4.69,4.69,0,0,0,2.17-.24l.28-.15a3.45,3.45,0,0,0,.41-.25l.2-.13,0,0,0,0,.07.09.32.38a1.35,1.35,0,0,0,.28.27l.25.21c.19.13.39.24.59.36a10.63,10.63,0,0,0,2.95.93,38.14,38.14,0,0,0,7.27.44,122.11,122.11,0,0,0,13.32-1.07C540.91,279,543,278.54,543,278.54Z"/><path class="cls-35" d="M540.78,286.43l-15.47.13a90.67,90.67,0,0,0-10.86.58,8.35,8.35,0,0,0-3.12.95,1.22,1.22,0,0,0-.64,1,1,1,0,0,1,0-.33,1.58,1.58,0,0,1,.52-.79,7.83,7.83,0,0,1,3.11-1.34,51.33,51.33,0,0,1,10.95-1.11c4.29-.06,8.17.18,11,.41S540.78,286.43,540.78,286.43Z"/></g><path class="cls-24" d="M407.77,32.53l-7.4,6.2c-.74.62.33,1.68,1.06,1.06l7.4-6.2c.74-.62-.32-1.68-1.06-1.06Z"/><path class="cls-24" d="M402.25,32.64q2,3.9,4,7.8c.44.86,1.74.1,1.3-.76q-2-3.9-4-7.8c-.44-.86-1.74-.1-1.3.76Z"/><path class="cls-24" d="M409.8,36h2.7a.75.75,0,0,0,0-1.5h-2.7a.75.75,0,0,0,0,1.5Z"/><path class="cls-24" d="M409.8,38.41h3.3a.75.75,0,0,0,0-1.5h-3.3a.75.75,0,0,0,0,1.5Z"/><path class="cls-24" d="M415.43,34a2.24,2.24,0,0,1,3-.09c1,.92-.28,2.31-.91,3-1.22,1.25-2.81,2.11-3.91,3.47a.76.76,0,0,0,.53,1.28c2-.07,4-.14,6-.15a.75.75,0,0,0,0-1.5c-2,0-4,.08-6,.15.17.43.35.85.53,1.28a26.19,26.19,0,0,1,3.35-3c.93-.81,2.35-2.21,2.25-3.58-.22-3.17-3.71-3.64-5.86-1.93-.76.6.31,1.66,1.06,1.06Z"/><path class="cls-24" d="M422.75,34.86c0,1.73,0,3.47,0,5.2a.75.75,0,0,0,1.5,0c0-1.73,0-3.47,0-5.2a.75.75,0,0,0-1.5,0Z"/><path class="cls-24" d="M421.1,38.41h4.77a.75.75,0,0,0,0-1.5H421.1a.75.75,0,0,0,0,1.5Z"/><path class="cls-24" d="M428.3,33h4.39a.75.75,0,0,0,0-1.5H428.3a.75.75,0,0,0,0,1.5Z"/><path class="cls-24" d="M427.35,32.66a5.91,5.91,0,0,0,1.49,4.24,6.88,6.88,0,0,0,2.94,1.24c1.42.44.65,2.74,0,3.55-1.41,1.72-2.87,0-2.92-1.63,0-1-1.54-1-1.5,0,.06,1.88.9,3.56,2.91,3.81S433.67,42,434,40.21s-.17-3-1.77-3.52a14.59,14.59,0,0,1-1.94-.62c-1.2-.62-1.34-2.22-1.39-3.41-.05-1-1.55-1-1.5,0Z"/><path class="cls-24" d="M423.23,53.19l4-3.4L426,49.26l-1.2,9.2c-.13.95,1.37.94,1.5,0l1.2-9.2c.09-.72-.85-.9-1.28-.53l-4,3.4c-.74.62.32,1.68,1.06,1.06Z"/><path class="cls-24" d="M410.7,48.26l-8.09,9.87c-.61.74.45,1.81,1.06,1.06l8.09-9.87c.61-.74-.45-1.81-1.06-1.06Z"/><path class="cls-24" d="M429.19,49.08h4.4a.75.75,0,0,0,0-1.5h-4.4a.75.75,0,0,0,0,1.5Z"/><path class="cls-24" d="M428.24,48.73A5.92,5.92,0,0,0,429.73,53a6.79,6.79,0,0,0,2.94,1.23c1.43.44.65,2.75,0,3.56-1.41,1.72-2.87,0-2.92-1.63a.75.75,0,0,0-1.5,0c.06,1.88.91,3.55,2.91,3.81s3.42-1.92,3.7-3.66-.18-3-1.78-3.52a14.46,14.46,0,0,1-1.93-.62c-1.2-.62-1.34-2.23-1.4-3.41-.05-1-1.55-1-1.5,0Z"/><path class="cls-36" d="M406.59,50.67a1.73,1.73,0,1,1-1.73-1.81A1.77,1.77,0,0,1,406.59,50.67Z"/><path class="cls-36" d="M411.87,56a1.73,1.73,0,1,1-1.72-1.81A1.77,1.77,0,0,1,411.87,56Z"/><path class="cls-25" d="M641,173.5c-.92-2.66-4.44-4-7.1-3.25a7.59,7.59,0,0,0-5.38,7.65,8.58,8.58,0,0,0,5.3,7.22c2.64,1,6.73-.38,7.75-3,.71-1.81-2.2-2.58-2.89-.8-.44,1.14-3.13,1.16-4.06.94-1.54-.37-2.51-2.35-3-3.69a4.55,4.55,0,0,1,1.88-4.9c1-.74,4.06-.81,4.56.66.63,1.82,3.53,1,2.89-.8Z"/><path class="cls-25" d="M637.51,179.8h5.26a1.5,1.5,0,0,0,0-3h-5.26a1.5,1.5,0,0,0,0,3Z"/><path class="cls-34" d="M626.26,180.93a1.5,1.5,0,0,0,0-3,1.5,1.5,0,0,0,0,3Z"/></g><g id="Galpon"><polygon class="cls-34" points="575 105.33 598.85 117.28 598.87 105.33 575 93.39 575 105.33"/><polygon class="cls-25" points="535 80.92 540 83.01 540 78.82 535 76.73 535 80.92"/><polygon class="cls-37" points="535 86.89 540 88.98 540 84.8 535 82.7 535 86.89"/><polygon class="cls-37" points="535 92.86 540 94.96 540 90.77 535 88.67 535 92.86"/><line class="cls-38" x1="532.56" y1="76.73" x2="525.97" y2="73.8"/><line class="cls-38" x1="532.56" y1="78.22" x2="525.97" y2="75.29"/><line class="cls-38" x1="532.56" y1="79.72" x2="525.97" y2="76.78"/><line class="cls-38" x1="532.56" y1="83" x2="525.97" y2="80.07"/><line class="cls-38" x1="532.56" y1="84.49" x2="525.97" y2="81.56"/><line class="cls-38" x1="532.56" y1="85.99" x2="525.97" y2="83.06"/><line class="cls-38" x1="532.56" y1="88.97" x2="525.97" y2="86.04"/><line class="cls-38" x1="532.56" y1="90.47" x2="525.97" y2="87.54"/><line class="cls-38" x1="532.56" y1="91.96" x2="525.97" y2="89.03"/><polygon class="cls-11" points="632 129.27 640 132.78 640 125.77 632 122.26 632 129.27"/><polygon class="cls-17" points="620 124.17 628 127.68 628 120.67 620 117.17 620 124.17"/><polygon class="cls-39" points="607 117.75 616 121.25 616 114.25 607 110.74 607 117.75"/><polygon class="cls-11" points="633 145.27 641 148.78 641 141.77 633 138.26 633 145.27"/><polygon class="cls-17" points="621 140.17 629 143.68 629 136.67 621 133.16 621 140.17"/><polygon class="cls-39" points="608 133.75 617 137.25 617 130.25 608 126.74 608 133.75"/><polygon class="cls-11" points="633 160.27 641 163.78 641 156.77 633 153.26 633 160.27"/><polygon class="cls-17" points="621 155.17 629 158.68 629 151.67 621 148.16 621 155.17"/><polygon class="cls-39" points="608 148.75 617 152.25 617 145.25 608 141.74 608 148.75"/><polygon class="cls-25" points="560 90.92 565 93.01 565 88.82 560 86.73 560 90.92"/><polygon class="cls-37" points="560 96.89 565 98.98 565 94.8 560 92.7 560 96.89"/><polygon class="cls-37" points="560 102.86 565 104.96 565 100.77 560 98.67 560 102.86"/><line class="cls-38" x1="557.56" y1="86.73" x2="550.97" y2="83.8"/><line class="cls-38" x1="557.56" y1="88.22" x2="550.97" y2="85.29"/><line class="cls-38" x1="557.56" y1="89.72" x2="550.97" y2="86.78"/><line class="cls-38" x1="557.56" y1="93" x2="550.97" y2="90.07"/><line class="cls-38" x1="557.56" y1="94.49" x2="550.97" y2="91.56"/><line class="cls-38" x1="557.56" y1="95.99" x2="550.97" y2="93.06"/><line class="cls-38" x1="557.56" y1="98.97" x2="550.97" y2="96.04"/><line class="cls-38" x1="557.56" y1="100.47" x2="550.97" y2="97.54"/><line class="cls-38" x1="557.56" y1="101.96" x2="550.97" y2="99.03"/><line class="cls-38" x1="569.5" y1="114.98" x2="569.5" y2="134.98"/><line class="cls-38" x1="569.5" y1="134.98" x2="596.04" y2="147"/><line class="cls-40" x1="569.5" y1="134.98" x2="579.22" y2="132.77"/><line class="cls-40" x1="579.22" y1="132.77" x2="581.33" y2="137.26"/><line class="cls-40" x1="581.33" y1="137.26" x2="587.9" y2="133.88"/><line class="cls-40" x1="587.9" y1="133.88" x2="590.79" y2="134.98"/><line class="cls-40" x1="590.79" y1="134.98" x2="596.04" y2="130.85"/><line class="cls-17" x1="569.5" y1="119.02" x2="596.04" y2="129.53"/><line class="cls-41" x1="596" y1="146.98" x2="596" y2="130.98"/><line class="cls-17" x1="596" y1="145.79" x2="596.04" y2="130.85"/></g></svg>