<svg width="378" height="187" viewBox="0 0 378 187" fill="none" xmlns="http://www.w3.org/2000/svg">
<rect x="10" y="1" width="360" height="185" fill="#5700AD"/>
<rect x="10" y="1" width="360" height="185" fill="url(#paint0_linear)"/>
<circle cx="15.9572" cy="46.6573" r="15.5025" transform="rotate(179.439 15.9572 46.6573)" fill="white" fill-opacity="0.08"/>
<circle cx="15.6536" cy="15.6539" r="15.5025" transform="rotate(179.439 15.6536 15.6539)" fill="white" fill-opacity="0.1"/>
<circle cx="16.5644" cy="108.665" r="15.5025" transform="rotate(179.439 16.5644 108.665)" fill="white" fill-opacity="0.04"/>
<circle cx="16.2608" cy="77.6613" r="15.5025" transform="rotate(179.439 16.2608 77.6613)" fill="white" fill-opacity="0.06"/>
<circle cx="17.1717" cy="170.672" r="15.5025" transform="rotate(179.439 17.1717 170.672)" fill="white" fill-opacity="0.01"/>
<circle cx="16.868" cy="139.668" r="15.5025" transform="rotate(179.439 16.868 139.668)" fill="white" fill-opacity="0.02"/>
<circle cx="47.5" cy="139.5" r="15.5" fill="white" fill-opacity="0.08"/>
<circle cx="47.5" cy="170.5" r="15.5" fill="white" fill-opacity="0.1"/>
<circle cx="47.5" cy="77.5" r="15.5" fill="white" fill-opacity="0.04"/>
<circle cx="47.5" cy="108.5" r="15.5" fill="white" fill-opacity="0.06"/>
<circle cx="47.5" cy="15.5" r="15.5" fill="white" fill-opacity="0.01"/>
<circle cx="47.5" cy="46.5" r="15.5" fill="white" fill-opacity="0.02"/>
<circle cx="78.9572" cy="46.6573" r="15.5025" transform="rotate(179.439 78.9572 46.6573)" fill="white" fill-opacity="0.08"/>
<circle cx="78.6536" cy="15.6539" r="15.5025" transform="rotate(179.439 78.6536 15.6539)" fill="white" fill-opacity="0.1"/>
<circle cx="79.5644" cy="108.665" r="15.5025" transform="rotate(179.439 79.5644 108.665)" fill="white" fill-opacity="0.04"/>
<circle cx="79.2608" cy="77.6613" r="15.5025" transform="rotate(179.439 79.2608 77.6613)" fill="white" fill-opacity="0.06"/>
<circle cx="80.1717" cy="170.672" r="15.5025" transform="rotate(179.439 80.1717 170.672)" fill="white" fill-opacity="0.01"/>
<circle cx="79.868" cy="139.668" r="15.5025" transform="rotate(179.439 79.868 139.668)" fill="white" fill-opacity="0.02"/>
<circle cx="110.5" cy="139.5" r="15.5" fill="white" fill-opacity="0.08"/>
<circle cx="110.5" cy="170.5" r="15.5" fill="white" fill-opacity="0.1"/>
<circle cx="110.5" cy="77.5" r="15.5" fill="white" fill-opacity="0.04"/>
<circle cx="110.5" cy="108.5" r="15.5" fill="white" fill-opacity="0.06"/>
<circle cx="110.5" cy="15.5" r="15.5" fill="white" fill-opacity="0.01"/>
<circle cx="110.5" cy="46.5" r="15.5" fill="white" fill-opacity="0.02"/>
<circle cx="141.957" cy="46.6573" r="15.5025" transform="rotate(179.439 141.957 46.6573)" fill="white" fill-opacity="0.08"/>
<circle cx="141.654" cy="15.6539" r="15.5025" transform="rotate(179.439 141.654 15.6539)" fill="white" fill-opacity="0.1"/>
<circle cx="142.564" cy="108.665" r="15.5025" transform="rotate(179.439 142.564 108.665)" fill="white" fill-opacity="0.04"/>
<circle cx="142.261" cy="77.6613" r="15.5025" transform="rotate(179.439 142.261 77.6613)" fill="white" fill-opacity="0.06"/>
<circle cx="143.172" cy="170.672" r="15.5025" transform="rotate(179.439 143.172 170.672)" fill="white" fill-opacity="0.01"/>
<circle cx="142.868" cy="139.668" r="15.5025" transform="rotate(179.439 142.868 139.668)" fill="white" fill-opacity="0.02"/>
<circle cx="173.5" cy="139.5" r="15.5" fill="white" fill-opacity="0.08"/>
<circle cx="173.5" cy="170.5" r="15.5" fill="white" fill-opacity="0.1"/>
<circle cx="173.5" cy="77.5" r="15.5" fill="white" fill-opacity="0.04"/>
<circle cx="173.5" cy="108.5" r="15.5" fill="white" fill-opacity="0.06"/>
<circle cx="173.5" cy="15.5" r="15.5" fill="white" fill-opacity="0.01"/>
<circle cx="173.5" cy="46.5" r="15.5" fill="white" fill-opacity="0.02"/>
<circle cx="330.957" cy="46.6573" r="15.5025" transform="rotate(179.439 330.957 46.6573)" fill="white" fill-opacity="0.08"/>
<circle cx="330.654" cy="15.6539" r="15.5025" transform="rotate(179.439 330.654 15.6539)" fill="white" fill-opacity="0.1"/>
<circle cx="331.564" cy="108.665" r="15.5025" transform="rotate(179.439 331.564 108.665)" fill="white" fill-opacity="0.04"/>
<circle cx="331.261" cy="77.6613" r="15.5025" transform="rotate(179.439 331.261 77.6613)" fill="white" fill-opacity="0.06"/>
<circle cx="332.172" cy="170.672" r="15.5025" transform="rotate(179.439 332.172 170.672)" fill="white" fill-opacity="0.01"/>
<circle cx="331.868" cy="139.668" r="15.5025" transform="rotate(179.439 331.868 139.668)" fill="white" fill-opacity="0.02"/>
<circle cx="362.5" cy="139.5" r="15.5" fill="white" fill-opacity="0.08"/>
<circle cx="362.5" cy="170.5" r="15.5" fill="white" fill-opacity="0.1"/>
<circle cx="362.5" cy="77.5" r="15.5" fill="white" fill-opacity="0.04"/>
<circle cx="362.5" cy="108.5" r="15.5" fill="white" fill-opacity="0.06"/>
<circle cx="362.5" cy="15.5" r="15.5" fill="white" fill-opacity="0.01"/>
<circle cx="362.5" cy="46.5" r="15.5" fill="white" fill-opacity="0.02"/>
<circle cx="267.957" cy="46.6573" r="15.5025" transform="rotate(179.439 267.957 46.6573)" fill="white" fill-opacity="0.08"/>
<circle cx="267.654" cy="15.6539" r="15.5025" transform="rotate(179.439 267.654 15.6539)" fill="white" fill-opacity="0.1"/>
<circle cx="268.564" cy="108.665" r="15.5025" transform="rotate(179.439 268.564 108.665)" fill="white" fill-opacity="0.04"/>
<circle cx="268.261" cy="77.6613" r="15.5025" transform="rotate(179.439 268.261 77.6613)" fill="white" fill-opacity="0.06"/>
<circle cx="269.172" cy="170.672" r="15.5025" transform="rotate(179.439 269.172 170.672)" fill="white" fill-opacity="0.01"/>
<circle cx="268.868" cy="139.668" r="15.5025" transform="rotate(179.439 268.868 139.668)" fill="white" fill-opacity="0.02"/>
<circle cx="299.5" cy="139.5" r="15.5" fill="white" fill-opacity="0.08"/>
<circle cx="299.5" cy="170.5" r="15.5" fill="white" fill-opacity="0.1"/>
<circle cx="299.5" cy="77.5" r="15.5" fill="white" fill-opacity="0.04"/>
<circle cx="299.5" cy="108.5" r="15.5" fill="white" fill-opacity="0.06"/>
<circle cx="299.5" cy="15.5" r="15.5" fill="white" fill-opacity="0.01"/>
<circle cx="299.5" cy="46.5" r="15.5" fill="white" fill-opacity="0.02"/>
<circle cx="204.957" cy="46.6573" r="15.5025" transform="rotate(179.439 204.957 46.6573)" fill="white" fill-opacity="0.08"/>
<circle cx="204.654" cy="15.6539" r="15.5025" transform="rotate(179.439 204.654 15.6539)" fill="white" fill-opacity="0.1"/>
<circle cx="205.564" cy="108.665" r="15.5025" transform="rotate(179.439 205.564 108.665)" fill="white" fill-opacity="0.04"/>
<circle cx="205.261" cy="77.6613" r="15.5025" transform="rotate(179.439 205.261 77.6613)" fill="white" fill-opacity="0.06"/>
<circle cx="206.172" cy="170.672" r="15.5025" transform="rotate(179.439 206.172 170.672)" fill="white" fill-opacity="0.01"/>
<circle cx="205.868" cy="139.668" r="15.5025" transform="rotate(179.439 205.868 139.668)" fill="white" fill-opacity="0.02"/>
<circle cx="236.5" cy="139.5" r="15.5" fill="white" fill-opacity="0.08"/>
<circle cx="236.5" cy="170.5" r="15.5" fill="white" fill-opacity="0.1"/>
<circle cx="236.5" cy="77.5" r="15.5" fill="white" fill-opacity="0.04"/>
<circle cx="236.5" cy="108.5" r="15.5" fill="white" fill-opacity="0.06"/>
<circle cx="236.5" cy="15.5" r="15.5" fill="white" fill-opacity="0.01"/>
<circle cx="236.5" cy="46.5" r="15.5" fill="white" fill-opacity="0.02"/>
<defs>
<linearGradient id="paint0_linear" x1="10" y1="8.98742" x2="384.495" y2="50.9379" gradientUnits="userSpaceOnUse">
<stop stop-color="#01548A"/>
<stop offset="1" stop-color="#5700AD"/>
</linearGradient>
</defs>
</svg>
