<svg width="1440" height="290" viewBox="0 0 1440 290" fill="none" xmlns="http://www.w3.org/2000/svg">
<rect width="1440" height="289" fill="#5700AD"/>
<rect width="1440" height="289" fill="url(#paint0_linear)"/>
<ellipse cx="25" cy="216.539" rx="25" ry="23.8429" fill="white" fill-opacity="0.08"/>
<ellipse cx="25" cy="264.225" rx="25" ry="23.8429" fill="white" fill-opacity="0.1"/>
<ellipse cx="25" cy="121.168" rx="25" ry="23.8429" fill="white" fill-opacity="0.04"/>
<ellipse cx="25" cy="168.854" rx="25" ry="23.8429" fill="white" fill-opacity="0.06"/>
<ellipse cx="25" cy="25.796" rx="25" ry="23.8429" fill="white" fill-opacity="0.01"/>
<ellipse cx="25" cy="73.482" rx="25" ry="23.8429" fill="white" fill-opacity="0.02"/>
<ellipse rx="24.9999" ry="23.843" transform="matrix(-0.999956 0.00933921 -0.0102676 -0.999947 74.7332 73.7121)" fill="white" fill-opacity="0.08"/>
<ellipse rx="24.9999" ry="23.843" transform="matrix(-0.999956 0.00933921 -0.0102676 -0.999947 74.2436 26.0289)" fill="white" fill-opacity="0.1"/>
<ellipse rx="24.9999" ry="23.843" transform="matrix(-0.999956 0.00933921 -0.0102676 -0.999947 75.7124 169.079)" fill="white" fill-opacity="0.04"/>
<ellipse rx="24.9999" ry="23.843" transform="matrix(-0.999956 0.00933921 -0.0102676 -0.999947 75.2228 121.396)" fill="white" fill-opacity="0.06"/>
<ellipse rx="24.9999" ry="23.843" transform="matrix(-0.999956 0.00933921 -0.0102676 -0.999947 76.6917 264.446)" fill="white" fill-opacity="0.01"/>
<ellipse rx="24.9999" ry="23.843" transform="matrix(-0.999956 0.00933921 -0.0102676 -0.999947 76.2021 216.763)" fill="white" fill-opacity="0.02"/>
<ellipse cx="126" cy="216.766" rx="25" ry="23.8429" fill="white" fill-opacity="0.08"/>
<ellipse cx="126" cy="264.452" rx="25" ry="23.8429" fill="white" fill-opacity="0.1"/>
<ellipse cx="126" cy="121.395" rx="25" ry="23.8429" fill="white" fill-opacity="0.04"/>
<ellipse cx="126" cy="169.08" rx="25" ry="23.8429" fill="white" fill-opacity="0.06"/>
<ellipse cx="126" cy="26.0231" rx="25" ry="23.8429" fill="white" fill-opacity="0.01"/>
<ellipse cx="126" cy="73.7086" rx="25" ry="23.8429" fill="white" fill-opacity="0.02"/>
<ellipse rx="24.9999" ry="23.843" transform="matrix(-0.999956 0.00933921 -0.0102676 -0.999947 175.266 73.7121)" fill="white" fill-opacity="0.08"/>
<ellipse rx="24.9999" ry="23.843" transform="matrix(-0.999956 0.00933921 -0.0102676 -0.999947 174.776 26.0289)" fill="white" fill-opacity="0.1"/>
<ellipse rx="24.9999" ry="23.843" transform="matrix(-0.999956 0.00933921 -0.0102676 -0.999947 176.245 169.079)" fill="white" fill-opacity="0.04"/>
<ellipse rx="24.9999" ry="23.843" transform="matrix(-0.999956 0.00933921 -0.0102676 -0.999947 175.755 121.396)" fill="white" fill-opacity="0.06"/>
<ellipse rx="24.9999" ry="23.843" transform="matrix(-0.999956 0.00933921 -0.0102676 -0.999947 177.224 264.446)" fill="white" fill-opacity="0.01"/>
<ellipse rx="24.9999" ry="23.843" transform="matrix(-0.999956 0.00933921 -0.0102676 -0.999947 176.734 216.763)" fill="white" fill-opacity="0.02"/>
<ellipse cx="227" cy="216.766" rx="25" ry="23.8429" fill="white" fill-opacity="0.08"/>
<ellipse cx="227" cy="264.452" rx="25" ry="23.8429" fill="white" fill-opacity="0.1"/>
<ellipse cx="227" cy="121.395" rx="25" ry="23.8429" fill="white" fill-opacity="0.04"/>
<ellipse cx="227" cy="169.08" rx="25" ry="23.8429" fill="white" fill-opacity="0.06"/>
<ellipse cx="227" cy="26.0231" rx="25" ry="23.8429" fill="white" fill-opacity="0.01"/>
<ellipse cx="227" cy="73.7086" rx="25" ry="23.8429" fill="white" fill-opacity="0.02"/>
<ellipse rx="24.9999" ry="23.843" transform="matrix(-0.999956 0.00933921 -0.0102676 -0.999947 276.266 73.7121)" fill="white" fill-opacity="0.08"/>
<ellipse rx="24.9999" ry="23.843" transform="matrix(-0.999956 0.00933921 -0.0102676 -0.999947 275.776 26.0289)" fill="white" fill-opacity="0.1"/>
<ellipse rx="24.9999" ry="23.843" transform="matrix(-0.999956 0.00933921 -0.0102676 -0.999947 277.245 169.079)" fill="white" fill-opacity="0.04"/>
<ellipse rx="24.9999" ry="23.843" transform="matrix(-0.999956 0.00933921 -0.0102676 -0.999947 276.755 121.396)" fill="white" fill-opacity="0.06"/>
<ellipse rx="24.9999" ry="23.843" transform="matrix(-0.999956 0.00933921 -0.0102676 -0.999947 278.224 264.446)" fill="white" fill-opacity="0.01"/>
<ellipse rx="24.9999" ry="23.843" transform="matrix(-0.999956 0.00933921 -0.0102676 -0.999947 277.734 216.763)" fill="white" fill-opacity="0.02"/>
<ellipse cx="327" cy="216.766" rx="25" ry="23.8429" fill="white" fill-opacity="0.08"/>
<ellipse cx="327" cy="264.452" rx="25" ry="23.8429" fill="white" fill-opacity="0.1"/>
<ellipse cx="327" cy="121.395" rx="25" ry="23.8429" fill="white" fill-opacity="0.04"/>
<ellipse cx="327" cy="169.08" rx="25" ry="23.8429" fill="white" fill-opacity="0.06"/>
<ellipse cx="327" cy="26.0231" rx="25" ry="23.8429" fill="white" fill-opacity="0.01"/>
<ellipse cx="327" cy="73.7086" rx="25" ry="23.8429" fill="white" fill-opacity="0.02"/>
<ellipse rx="24.9999" ry="23.843" transform="matrix(-0.999956 0.00933921 -0.0102676 -0.999947 376.266 73.7121)" fill="white" fill-opacity="0.08"/>
<ellipse rx="24.9999" ry="23.843" transform="matrix(-0.999956 0.00933921 -0.0102676 -0.999947 375.776 26.0289)" fill="white" fill-opacity="0.1"/>
<ellipse rx="24.9999" ry="23.843" transform="matrix(-0.999956 0.00933921 -0.0102676 -0.999947 377.245 169.079)" fill="white" fill-opacity="0.04"/>
<ellipse rx="24.9999" ry="23.843" transform="matrix(-0.999956 0.00933921 -0.0102676 -0.999947 376.755 121.396)" fill="white" fill-opacity="0.06"/>
<ellipse rx="24.9999" ry="23.843" transform="matrix(-0.999956 0.00933921 -0.0102676 -0.999947 378.224 264.446)" fill="white" fill-opacity="0.01"/>
<ellipse rx="24.9999" ry="23.843" transform="matrix(-0.999956 0.00933921 -0.0102676 -0.999947 377.734 216.763)" fill="white" fill-opacity="0.02"/>
<ellipse cx="428" cy="216.993" rx="25" ry="23.8429" fill="white" fill-opacity="0.08"/>
<ellipse cx="428" cy="264.678" rx="25" ry="23.8429" fill="white" fill-opacity="0.1"/>
<ellipse cx="428" cy="121.621" rx="25" ry="23.8429" fill="white" fill-opacity="0.04"/>
<ellipse cx="428" cy="169.307" rx="25" ry="23.8429" fill="white" fill-opacity="0.06"/>
<ellipse cx="428" cy="26.2496" rx="25" ry="23.8429" fill="white" fill-opacity="0.01"/>
<ellipse cx="428" cy="73.9357" rx="25" ry="23.8429" fill="white" fill-opacity="0.02"/>
<ellipse rx="24.9999" ry="23.843" transform="matrix(-0.999956 0.00933921 -0.0102676 -0.999947 477.266 73.9391)" fill="white" fill-opacity="0.08"/>
<ellipse rx="24.9999" ry="23.843" transform="matrix(-0.999956 0.00933921 -0.0102676 -0.999947 476.776 26.2555)" fill="white" fill-opacity="0.1"/>
<ellipse rx="24.9999" ry="23.843" transform="matrix(-0.999956 0.00933921 -0.0102676 -0.999947 478.245 169.306)" fill="white" fill-opacity="0.04"/>
<ellipse rx="24.9999" ry="23.843" transform="matrix(-0.999956 0.00933921 -0.0102676 -0.999947 477.755 121.623)" fill="white" fill-opacity="0.06"/>
<ellipse rx="24.9999" ry="23.843" transform="matrix(-0.999956 0.00933921 -0.0102676 -0.999947 479.224 264.673)" fill="white" fill-opacity="0.01"/>
<ellipse rx="24.9999" ry="23.843" transform="matrix(-0.999956 0.00933921 -0.0102676 -0.999947 478.734 216.989)" fill="white" fill-opacity="0.02"/>
<ellipse cx="529" cy="216.993" rx="25" ry="23.8429" fill="white" fill-opacity="0.08"/>
<ellipse cx="529" cy="264.678" rx="25" ry="23.8429" fill="white" fill-opacity="0.1"/>
<ellipse cx="529" cy="121.621" rx="25" ry="23.8429" fill="white" fill-opacity="0.04"/>
<ellipse cx="529" cy="169.307" rx="25" ry="23.8429" fill="white" fill-opacity="0.06"/>
<ellipse cx="529" cy="26.2496" rx="25" ry="23.8429" fill="white" fill-opacity="0.01"/>
<ellipse cx="529" cy="73.9357" rx="25" ry="23.8429" fill="white" fill-opacity="0.02"/>
<ellipse rx="24.9999" ry="23.843" transform="matrix(-0.999956 0.00933921 -0.0102676 -0.999947 578.266 73.9391)" fill="white" fill-opacity="0.08"/>
<ellipse rx="24.9999" ry="23.843" transform="matrix(-0.999956 0.00933921 -0.0102676 -0.999947 577.776 26.2555)" fill="white" fill-opacity="0.1"/>
<ellipse rx="24.9999" ry="23.843" transform="matrix(-0.999956 0.00933921 -0.0102676 -0.999947 579.245 169.306)" fill="white" fill-opacity="0.04"/>
<ellipse rx="24.9999" ry="23.843" transform="matrix(-0.999956 0.00933921 -0.0102676 -0.999947 578.755 121.623)" fill="white" fill-opacity="0.06"/>
<ellipse rx="24.9999" ry="23.843" transform="matrix(-0.999956 0.00933921 -0.0102676 -0.999947 580.224 264.673)" fill="white" fill-opacity="0.01"/>
<ellipse rx="24.9999" ry="23.843" transform="matrix(-0.999956 0.00933921 -0.0102676 -0.999947 579.734 216.989)" fill="white" fill-opacity="0.02"/>
<ellipse cx="630" cy="215.813" rx="25" ry="23.8429" fill="white" fill-opacity="0.08"/>
<ellipse cx="630" cy="263.499" rx="25" ry="23.8429" fill="white" fill-opacity="0.1"/>
<ellipse cx="630" cy="120.441" rx="25" ry="23.8429" fill="white" fill-opacity="0.04"/>
<ellipse cx="630" cy="168.127" rx="25" ry="23.8429" fill="white" fill-opacity="0.06"/>
<ellipse cx="630" cy="25.0694" rx="25" ry="23.8429" fill="white" fill-opacity="0.01"/>
<ellipse cx="630" cy="72.7555" rx="25" ry="23.8429" fill="white" fill-opacity="0.02"/>
<ellipse rx="24.9999" ry="23.843" transform="matrix(-0.999956 0.00933921 -0.0102676 -0.999947 679.266 72.7584)" fill="white" fill-opacity="0.08"/>
<ellipse rx="24.9999" ry="23.843" transform="matrix(-0.999956 0.00933921 -0.0102676 -0.999947 678.776 25.0753)" fill="white" fill-opacity="0.1"/>
<ellipse rx="24.9999" ry="23.843" transform="matrix(-0.999956 0.00933921 -0.0102676 -0.999947 680.245 168.126)" fill="white" fill-opacity="0.04"/>
<ellipse rx="24.9999" ry="23.843" transform="matrix(-0.999956 0.00933921 -0.0102676 -0.999947 679.755 120.442)" fill="white" fill-opacity="0.06"/>
<ellipse rx="24.9999" ry="23.843" transform="matrix(-0.999956 0.00933921 -0.0102676 -0.999947 681.224 263.492)" fill="white" fill-opacity="0.01"/>
<ellipse rx="24.9999" ry="23.843" transform="matrix(-0.999956 0.00933921 -0.0102676 -0.999947 680.734 215.809)" fill="white" fill-opacity="0.02"/>
<ellipse cx="731" cy="216.039" rx="25" ry="23.8429" fill="white" fill-opacity="0.08"/>
<ellipse cx="731" cy="263.725" rx="25" ry="23.8429" fill="white" fill-opacity="0.1"/>
<ellipse cx="731" cy="120.668" rx="25" ry="23.8429" fill="white" fill-opacity="0.04"/>
<ellipse cx="731" cy="168.353" rx="25" ry="23.8429" fill="white" fill-opacity="0.06"/>
<ellipse cx="731" cy="25.296" rx="25" ry="23.8429" fill="white" fill-opacity="0.01"/>
<ellipse cx="731" cy="72.9816" rx="25" ry="23.8429" fill="white" fill-opacity="0.02"/>
<ellipse rx="24.9999" ry="23.843" transform="matrix(-0.999956 0.00933921 -0.0102676 -0.999947 780.266 72.986)" fill="white" fill-opacity="0.08"/>
<ellipse rx="24.9999" ry="23.843" transform="matrix(-0.999956 0.00933921 -0.0102676 -0.999947 779.776 25.3024)" fill="white" fill-opacity="0.1"/>
<ellipse rx="24.9999" ry="23.843" transform="matrix(-0.999956 0.00933921 -0.0102676 -0.999947 781.245 168.353)" fill="white" fill-opacity="0.04"/>
<ellipse rx="24.9999" ry="23.843" transform="matrix(-0.999956 0.00933921 -0.0102676 -0.999947 780.755 120.669)" fill="white" fill-opacity="0.06"/>
<ellipse rx="24.9999" ry="23.843" transform="matrix(-0.999956 0.00933921 -0.0102676 -0.999947 782.224 263.719)" fill="white" fill-opacity="0.01"/>
<ellipse rx="24.9999" ry="23.843" transform="matrix(-0.999956 0.00933921 -0.0102676 -0.999947 781.734 216.036)" fill="white" fill-opacity="0.02"/>
<ellipse cx="832" cy="216.039" rx="25" ry="23.8429" fill="white" fill-opacity="0.08"/>
<ellipse cx="832" cy="263.725" rx="25" ry="23.8429" fill="white" fill-opacity="0.1"/>
<ellipse cx="832" cy="120.668" rx="25" ry="23.8429" fill="white" fill-opacity="0.04"/>
<ellipse cx="832" cy="168.353" rx="25" ry="23.8429" fill="white" fill-opacity="0.06"/>
<ellipse cx="832" cy="25.296" rx="25" ry="23.8429" fill="white" fill-opacity="0.01"/>
<ellipse cx="832" cy="72.9816" rx="25" ry="23.8429" fill="white" fill-opacity="0.02"/>
<ellipse rx="24.9999" ry="23.843" transform="matrix(-0.999956 0.00933921 -0.0102676 -0.999947 881.266 72.986)" fill="white" fill-opacity="0.08"/>
<ellipse rx="24.9999" ry="23.843" transform="matrix(-0.999956 0.00933921 -0.0102676 -0.999947 880.776 25.3024)" fill="white" fill-opacity="0.1"/>
<ellipse rx="24.9999" ry="23.843" transform="matrix(-0.999956 0.00933921 -0.0102676 -0.999947 882.245 168.353)" fill="white" fill-opacity="0.04"/>
<ellipse rx="24.9999" ry="23.843" transform="matrix(-0.999956 0.00933921 -0.0102676 -0.999947 881.755 120.669)" fill="white" fill-opacity="0.06"/>
<ellipse rx="24.9999" ry="23.843" transform="matrix(-0.999956 0.00933921 -0.0102676 -0.999947 883.224 263.719)" fill="white" fill-opacity="0.01"/>
<ellipse rx="24.9999" ry="23.843" transform="matrix(-0.999956 0.00933921 -0.0102676 -0.999947 882.734 216.036)" fill="white" fill-opacity="0.02"/>
<ellipse cx="932" cy="216.039" rx="25" ry="23.8429" fill="white" fill-opacity="0.08"/>
<ellipse cx="932" cy="263.725" rx="25" ry="23.8429" fill="white" fill-opacity="0.1"/>
<ellipse cx="932" cy="120.668" rx="25" ry="23.8429" fill="white" fill-opacity="0.04"/>
<ellipse cx="932" cy="168.353" rx="25" ry="23.8429" fill="white" fill-opacity="0.06"/>
<ellipse cx="932" cy="25.296" rx="25" ry="23.8429" fill="white" fill-opacity="0.01"/>
<ellipse cx="932" cy="72.9816" rx="25" ry="23.8429" fill="white" fill-opacity="0.02"/>
<ellipse rx="24.9999" ry="23.843" transform="matrix(-0.999956 0.00933921 -0.0102676 -0.999947 981.266 72.986)" fill="white" fill-opacity="0.08"/>
<ellipse rx="24.9999" ry="23.843" transform="matrix(-0.999956 0.00933921 -0.0102676 -0.999947 980.776 25.3024)" fill="white" fill-opacity="0.1"/>
<ellipse rx="24.9999" ry="23.843" transform="matrix(-0.999956 0.00933921 -0.0102676 -0.999947 982.245 168.353)" fill="white" fill-opacity="0.04"/>
<ellipse rx="24.9999" ry="23.843" transform="matrix(-0.999956 0.00933921 -0.0102676 -0.999947 981.755 120.669)" fill="white" fill-opacity="0.06"/>
<ellipse rx="24.9999" ry="23.843" transform="matrix(-0.999956 0.00933921 -0.0102676 -0.999947 983.224 263.719)" fill="white" fill-opacity="0.01"/>
<ellipse rx="24.9999" ry="23.843" transform="matrix(-0.999956 0.00933921 -0.0102676 -0.999947 982.734 216.036)" fill="white" fill-opacity="0.02"/>
<ellipse cx="1033" cy="216.266" rx="25" ry="23.8429" fill="white" fill-opacity="0.08"/>
<ellipse cx="1033" cy="263.952" rx="25" ry="23.8429" fill="white" fill-opacity="0.1"/>
<ellipse cx="1033" cy="120.895" rx="25" ry="23.8429" fill="white" fill-opacity="0.04"/>
<ellipse cx="1033" cy="168.581" rx="25" ry="23.8429" fill="white" fill-opacity="0.06"/>
<ellipse cx="1033" cy="25.5231" rx="25" ry="23.8429" fill="white" fill-opacity="0.01"/>
<ellipse cx="1033" cy="73.2091" rx="25" ry="23.8429" fill="white" fill-opacity="0.02"/>
<ellipse rx="24.9999" ry="23.843" transform="matrix(-0.999956 0.00933921 -0.0102676 -0.999947 1082.27 73.2121)" fill="white" fill-opacity="0.08"/>
<ellipse rx="24.9999" ry="23.843" transform="matrix(-0.999956 0.00933921 -0.0102676 -0.999947 1081.78 25.5289)" fill="white" fill-opacity="0.1"/>
<ellipse rx="24.9999" ry="23.843" transform="matrix(-0.999956 0.00933921 -0.0102676 -0.999947 1083.24 168.579)" fill="white" fill-opacity="0.04"/>
<ellipse rx="24.9999" ry="23.843" transform="matrix(-0.999956 0.00933921 -0.0102676 -0.999947 1082.76 120.896)" fill="white" fill-opacity="0.06"/>
<ellipse rx="24.9999" ry="23.843" transform="matrix(-0.999956 0.00933921 -0.0102676 -0.999947 1084.22 263.946)" fill="white" fill-opacity="0.01"/>
<ellipse rx="24.9999" ry="23.843" transform="matrix(-0.999956 0.00933921 -0.0102676 -0.999947 1083.73 216.262)" fill="white" fill-opacity="0.02"/>
<ellipse cx="1134" cy="216.266" rx="25" ry="23.8429" fill="white" fill-opacity="0.08"/>
<ellipse cx="1134" cy="263.952" rx="25" ry="23.8429" fill="white" fill-opacity="0.1"/>
<ellipse cx="1134" cy="120.895" rx="25" ry="23.8429" fill="white" fill-opacity="0.04"/>
<ellipse cx="1134" cy="168.581" rx="25" ry="23.8429" fill="white" fill-opacity="0.06"/>
<ellipse cx="1134" cy="25.5231" rx="25" ry="23.8429" fill="white" fill-opacity="0.01"/>
<ellipse cx="1134" cy="73.2091" rx="25" ry="23.8429" fill="white" fill-opacity="0.02"/>
<ellipse rx="24.9999" ry="23.843" transform="matrix(-0.999956 0.00933921 -0.0102676 -0.999947 1183.27 73.2121)" fill="white" fill-opacity="0.08"/>
<ellipse rx="24.9999" ry="23.843" transform="matrix(-0.999956 0.00933921 -0.0102676 -0.999947 1182.78 25.5289)" fill="white" fill-opacity="0.1"/>
<ellipse rx="24.9999" ry="23.843" transform="matrix(-0.999956 0.00933921 -0.0102676 -0.999947 1184.24 168.579)" fill="white" fill-opacity="0.04"/>
<ellipse rx="24.9999" ry="23.843" transform="matrix(-0.999956 0.00933921 -0.0102676 -0.999947 1183.76 120.896)" fill="white" fill-opacity="0.06"/>
<ellipse rx="24.9999" ry="23.843" transform="matrix(-0.999956 0.00933921 -0.0102676 -0.999947 1185.22 263.946)" fill="white" fill-opacity="0.01"/>
<ellipse rx="24.9999" ry="23.843" transform="matrix(-0.999956 0.00933921 -0.0102676 -0.999947 1184.73 216.262)" fill="white" fill-opacity="0.02"/>
<ellipse cx="1235" cy="216.766" rx="25" ry="23.8429" fill="white" fill-opacity="0.08"/>
<ellipse cx="1235" cy="264.452" rx="25" ry="23.8429" fill="white" fill-opacity="0.1"/>
<ellipse cx="1235" cy="121.395" rx="25" ry="23.8429" fill="white" fill-opacity="0.04"/>
<ellipse cx="1235" cy="169.08" rx="25" ry="23.8429" fill="white" fill-opacity="0.06"/>
<ellipse cx="1235" cy="26.0231" rx="25" ry="23.8429" fill="white" fill-opacity="0.01"/>
<ellipse cx="1235" cy="73.7086" rx="25" ry="23.8429" fill="white" fill-opacity="0.02"/>
<ellipse rx="24.9999" ry="23.843" transform="matrix(-0.999956 0.00933921 -0.0102676 -0.999947 1284.27 73.7121)" fill="white" fill-opacity="0.08"/>
<ellipse rx="24.9999" ry="23.843" transform="matrix(-0.999956 0.00933921 -0.0102676 -0.999947 1283.78 26.0289)" fill="white" fill-opacity="0.1"/>
<ellipse rx="24.9999" ry="23.843" transform="matrix(-0.999956 0.00933921 -0.0102676 -0.999947 1285.24 169.079)" fill="white" fill-opacity="0.04"/>
<ellipse rx="24.9999" ry="23.843" transform="matrix(-0.999956 0.00933921 -0.0102676 -0.999947 1284.76 121.396)" fill="white" fill-opacity="0.06"/>
<ellipse rx="24.9999" ry="23.843" transform="matrix(-0.999956 0.00933921 -0.0102676 -0.999947 1286.22 264.446)" fill="white" fill-opacity="0.01"/>
<ellipse rx="24.9999" ry="23.843" transform="matrix(-0.999956 0.00933921 -0.0102676 -0.999947 1285.73 216.763)" fill="white" fill-opacity="0.02"/>
<ellipse cx="1336" cy="216.766" rx="25" ry="23.8429" fill="white" fill-opacity="0.08"/>
<ellipse cx="1336" cy="264.452" rx="25" ry="23.8429" fill="white" fill-opacity="0.1"/>
<ellipse cx="1336" cy="121.395" rx="25" ry="23.8429" fill="white" fill-opacity="0.04"/>
<ellipse cx="1336" cy="169.08" rx="25" ry="23.8429" fill="white" fill-opacity="0.06"/>
<ellipse cx="1336" cy="26.0231" rx="25" ry="23.8429" fill="white" fill-opacity="0.01"/>
<ellipse cx="1336" cy="73.7086" rx="25" ry="23.8429" fill="white" fill-opacity="0.02"/>
<ellipse rx="24.9999" ry="23.843" transform="matrix(-0.999956 0.00933921 -0.0102676 -0.999947 1389.73 74.6662)" fill="white" fill-opacity="0.08"/>
<ellipse rx="24.9999" ry="23.843" transform="matrix(-0.999956 0.00933921 -0.0102676 -0.999947 1389.24 26.9826)" fill="white" fill-opacity="0.1"/>
<ellipse rx="24.9999" ry="23.843" transform="matrix(-0.999956 0.00933921 -0.0102676 -0.999947 1390.71 170.033)" fill="white" fill-opacity="0.04"/>
<ellipse rx="24.9999" ry="23.843" transform="matrix(-0.999956 0.00933921 -0.0102676 -0.999947 1390.22 122.349)" fill="white" fill-opacity="0.06"/>
<ellipse rx="24.9999" ry="23.843" transform="matrix(-0.999956 0.00933921 -0.0102676 -0.999947 1391.69 265.4)" fill="white" fill-opacity="0.01"/>
<ellipse rx="24.9999" ry="23.843" transform="matrix(-0.999956 0.00933921 -0.0102676 -0.999947 1391.2 217.716)" fill="white" fill-opacity="0.02"/>
<ellipse cx="1441" cy="217.493" rx="25" ry="23.8429" fill="white" fill-opacity="0.08"/>
<ellipse cx="1441" cy="265.179" rx="25" ry="23.8429" fill="white" fill-opacity="0.1"/>
<ellipse cx="1441" cy="122.122" rx="25" ry="23.8429" fill="white" fill-opacity="0.04"/>
<ellipse cx="1441" cy="169.808" rx="25" ry="23.8429" fill="white" fill-opacity="0.06"/>
<ellipse cx="1441" cy="26.7501" rx="25" ry="23.8429" fill="white" fill-opacity="0.01"/>
<ellipse cx="1441" cy="74.4361" rx="25" ry="23.8429" fill="white" fill-opacity="0.02"/>
<defs>
<linearGradient id="paint0_linear" x1="1.83796e-05" y1="12.4777" x2="1401.47" y2="414.463" gradientUnits="userSpaceOnUse">
<stop stop-color="#01548A"/>
<stop offset="1" stop-color="#5700AD"/>
</linearGradient>
</defs>
</svg>
