<svg id="Capa_1" data-name="Capa 1" xmlns="http://www.w3.org/2000/svg" viewBox="0 0 225.87 138.1"><defs><style>.cls-1{fill:#01548a;}.cls-2{fill:#666;}.cls-3{fill:#5700ad;}</style></defs><title>Imagotipo-color</title><path class="cls-1" d="M38.2,92.9l0-.32H23.5a3.36,3.36,0,0,0,0,6.72h7.76A6.45,6.45,0,0,1,30,103.1,10.22,10.22,0,0,1,26,106.28a12.57,12.57,0,0,1-5.11,1.06,13.64,13.64,0,0,1-6.94-1.86,14.24,14.24,0,0,1-5.1-5,13.39,13.39,0,0,1-1.9-7,13.68,13.68,0,0,1,1.79-7,13.39,13.39,0,0,1,4.93-4.87,13.86,13.86,0,0,1,7-1.79,12.33,12.33,0,0,1,5.65,1.32,21.91,21.91,0,0,1,2.81,1.74A3.38,3.38,0,0,0,34.5,80a3.36,3.36,0,0,0-1.21-2.39c-.38-.31-.79-.63-1.22-.93a20.23,20.23,0,0,0-5.13-2.5,19.79,19.79,0,0,0-6.32-1,21.21,21.21,0,0,0-8.08,1.53A20.28,20.28,0,0,0,6,79a19.71,19.71,0,0,0-4.39,6.44,20.28,20.28,0,0,0-1.57,8,20.63,20.63,0,0,0,1.57,8A19.74,19.74,0,0,0,6,108a20.71,20.71,0,0,0,14.69,5.92,18.87,18.87,0,0,0,8-1.68,16.32,16.32,0,0,0,5.9-4.53,14.28,14.28,0,0,0,3-5.28,20.76,20.76,0,0,0,.94-6.15,16.18,16.18,0,0,0-.09-1.71C38.34,94,38.28,93.46,38.2,92.9Z"/><path class="cls-1" d="M66.22,84.49a13.12,13.12,0,0,0-6.89-1.87,15.65,15.65,0,0,0-7.62,1.92A14.75,14.75,0,0,0,46.09,90,16.72,16.72,0,0,0,44,98.65a15.4,15.4,0,0,0,2,7.87A14.5,14.5,0,0,0,51.56,112a17.16,17.16,0,0,0,8.27,2,16.85,16.85,0,0,0,6.69-1.39,21.8,21.8,0,0,0,2.81-1.44l.2-.13a2.89,2.89,0,0,0,1.3-2.43,3,3,0,0,0-.22-1.12l0-.09a2.54,2.54,0,0,0-.5-.74,2.92,2.92,0,0,0-3.72-.5l-.1.08-1.07.66a9.17,9.17,0,0,1-4.78,1.1,10.22,10.22,0,0,1-6.78-2.23,9,9,0,0,1-3.08-5.64h21A1.49,1.49,0,0,0,73,98.63l0-1.38a15.35,15.35,0,0,0-1.84-7.62A13.79,13.79,0,0,0,66.22,84.49Zm.16,10.24-15.6,0a7.12,7.12,0,0,1,3-4.61,10.38,10.38,0,0,1,5.58-1.47,7.46,7.46,0,0,1,3.29.76,7.2,7.2,0,0,1,2.58,2.17A5.86,5.86,0,0,1,66.38,94.73Z"/><path class="cls-1" d="M81.71,83.85a3.25,3.25,0,0,0-3.25,3.26V110.7a3.25,3.25,0,1,0,6.49,0V87.11a3.24,3.24,0,0,0-1-2.3A3.28,3.28,0,0,0,81.71,83.85Z"/><path class="cls-1" d="M112.53,84.93a10.58,10.58,0,0,0-6.37-1.69,11.07,11.07,0,0,0-5.9,1.64,13.79,13.79,0,0,0-3.35,2.85V87.1a3.25,3.25,0,1,0-6.49,0v23.59a3.25,3.25,0,1,0,6.49,0V95.79a5.89,5.89,0,0,1,1-3.26,7,7,0,0,1,2.61-2.4,7.8,7.8,0,0,1,3.81-.9,5.35,5.35,0,0,1,3.51.71,4.71,4.71,0,0,1,1.76,2.45,11.66,11.66,0,0,1,.55,3.68v14.62a3.25,3.25,0,1,0,6.49,0v-15a20.73,20.73,0,0,0-.88-6.2A8.83,8.83,0,0,0,112.53,84.93Z"/><path class="cls-1" d="M144,92.12A27.42,27.42,0,0,0,137.64,90,19.6,19.6,0,0,1,131.91,88a4.12,4.12,0,0,1-2-3.84,4.4,4.4,0,0,1,1.89-3.61,8.67,8.67,0,0,1,5-1.39,9,9,0,0,1,5.16,1.5,12.46,12.46,0,0,1,1.85,1.55,3.46,3.46,0,0,0,2.46,1.07h0a3.32,3.32,0,0,0,2.34-1,3.38,3.38,0,0,0,.1-4.72,13.46,13.46,0,0,0-3.6-2.77A17.17,17.17,0,0,0,137,73a16.86,16.86,0,0,0-6.8,1.37,12.76,12.76,0,0,0-5.1,3.91,9.76,9.76,0,0,0-1.94,6c0,3.6,1.13,6.4,3.37,8.31a19.54,19.54,0,0,0,8.89,4,18.66,18.66,0,0,1,6.55,2.35,4.57,4.57,0,0,1,2.21,4,3.81,3.81,0,0,1-1,2.64,6.93,6.93,0,0,1-2.71,1.7,11.48,11.48,0,0,1-9.76-1.15,17,17,0,0,1-2.55-2.33,3.46,3.46,0,0,0-2.55-1.11h0a3.47,3.47,0,0,0-2.61,5.72,16.17,16.17,0,0,0,5,3.8,19.27,19.27,0,0,0,8.41,1.83c4.5,0,8.1-1.14,10.69-3.39a11.57,11.57,0,0,0,3.93-9.17,8.39,8.39,0,0,0-2-5.58A14.6,14.6,0,0,0,144,92.12Z"/><path class="cls-1" d="M179.5,84.69a15.29,15.29,0,0,0-7.76-2,15.51,15.51,0,0,0-7.79,2,14.82,14.82,0,0,0-5.53,5.53,17.16,17.16,0,0,0,0,16.19,15,15,0,0,0,5.53,5.53,15.45,15.45,0,0,0,7.79,2,15.28,15.28,0,0,0,7.76-2,14.89,14.89,0,0,0,5.5-5.53,17.08,17.08,0,0,0,0-16.19A14.89,14.89,0,0,0,179.5,84.69Zm.89,13.62h0a10,10,0,0,1-1.1,5,8.84,8.84,0,0,1-3.14,3.41,8.24,8.24,0,0,1-4.44,1.23,8.41,8.41,0,0,1-4.48-1.23,8.84,8.84,0,0,1-3.17-3.41,12,12,0,0,1,0-10,8.48,8.48,0,0,1,7.65-4.59,8.41,8.41,0,0,1,4.44,1.21,8.55,8.55,0,0,1,3.14,3.38A10.14,10.14,0,0,1,180.39,98.31Z"/><path class="cls-1" d="M204.8,72.52a3.63,3.63,0,0,0-.74-.27,9.06,9.06,0,0,0-2.55-.33,8.67,8.67,0,0,0-9.08,9v3.44h-1.67a3,3,0,1,0,0,6h1.67v20.26a3.25,3.25,0,0,0,1,2.32,3.27,3.27,0,0,0,5.58-2.32V90.43h1.66a3,3,0,1,0,0-6H199V81a3.19,3.19,0,0,1,.71-2.11,3.93,3.93,0,0,1,3.2-.74l.13,0a3,3,0,0,0,1.79-5.61Z"/><path class="cls-1" d="M222.7,83.88h-2.91V79.65a3.25,3.25,0,0,0-6.5,0v4.23h-2.92a3.17,3.17,0,1,0,0,6.33h2.92v20.52a3.25,3.25,0,0,0,6.5,0V90.21h2.91a3.17,3.17,0,0,0,0-6.33Z"/><path class="cls-1" d="M81.71,71.88a3.81,3.81,0,1,0,3.8,3.81A3.82,3.82,0,0,0,81.71,71.88Z"/><path class="cls-2" d="M4.08,133.52V121.11H0v-2.17H10.53v2.17H6.33v12.41Z"/><path class="cls-2" d="M17.26,124.9a2.51,2.51,0,0,0-.51-.18,2.59,2.59,0,0,0-.63-.07,2.76,2.76,0,0,0-1.32.34,3,3,0,0,0-1.07,1,2.67,2.67,0,0,0-.42,1.51v6H11.14V122.59h2.17v2.06A3.94,3.94,0,0,1,14.69,123a3.36,3.36,0,0,1,2-.64,2.65,2.65,0,0,1,1.18.21Z"/><path class="cls-2" d="M29.45,122.38v11.14H27.28v-1.89a4.92,4.92,0,0,1-1.48,1.29,4.25,4.25,0,0,1-2.27.6,4.54,4.54,0,0,1-2.51-.73,5.17,5.17,0,0,1-1.8-2,6.45,6.45,0,0,1-.66-3,6.23,6.23,0,0,1,.68-2.95,5.08,5.08,0,0,1,1.9-2,5.25,5.25,0,0,1,2.75-.72,4,4,0,0,1,2,.5,5,5,0,0,1,1.38,1.17v-1.44ZM24,131.54a3.17,3.17,0,0,0,1.75-.48A3.32,3.32,0,0,0,27,129.72a4.18,4.18,0,0,0,.42-1.9,4.13,4.13,0,0,0-.42-1.88,3.4,3.4,0,0,0-1.17-1.32,3.17,3.17,0,0,0-1.75-.49,3.07,3.07,0,0,0-1.7.48,3.3,3.3,0,0,0-1.17,1.31,4.51,4.51,0,0,0,0,3.8,3.32,3.32,0,0,0,1.17,1.34A3.07,3.07,0,0,0,24,131.54Z"/><path class="cls-2" d="M38.09,122.36a3.78,3.78,0,0,1,2.29.6,3.2,3.2,0,0,1,1.14,1.63,7.64,7.64,0,0,1,.32,2.27v6.66H39.69V127a4.66,4.66,0,0,0-.2-1.41,1.89,1.89,0,0,0-.71-1,2.07,2.07,0,0,0-1.4-.29,3,3,0,0,0-1.48.35,2.8,2.8,0,0,0-1,.94,2.31,2.31,0,0,0-.37,1.29v6.62H32.36V122.59h2.15v1.73A4.5,4.5,0,0,1,36,123,4,4,0,0,1,38.09,122.36Z"/><path class="cls-2" d="M50.89,125.26a5.19,5.19,0,0,0-1.32-1,3.09,3.09,0,0,0-1.37-.38,3.56,3.56,0,0,0-.86.11,1.56,1.56,0,0,0-.72.38,1.09,1.09,0,0,0-.29.83A1.12,1.12,0,0,0,47,126.3a9.43,9.43,0,0,0,1.64.56,12,12,0,0,1,1.66.57,3.39,3.39,0,0,1,1.35,1,2.89,2.89,0,0,1,.53,1.85,2.72,2.72,0,0,1-.57,1.74,3.76,3.76,0,0,1-1.48,1.12,5,5,0,0,1-1.91.38,6.8,6.8,0,0,1-2.34-.42,4.48,4.48,0,0,1-2-1.47l1.46-1.25a4.12,4.12,0,0,0,1.28,1,3.92,3.92,0,0,0,1.76.36,2.42,2.42,0,0,0,.79-.13,1.7,1.7,0,0,0,.68-.44,1.15,1.15,0,0,0,.28-.82,1,1,0,0,0-.3-.78,2.24,2.24,0,0,0-.81-.46,9,9,0,0,0-1.1-.32,14.15,14.15,0,0,1-1.76-.62,3.75,3.75,0,0,1-1.43-1,3,3,0,0,1,0-3.52,3.71,3.71,0,0,1,1.45-1.08,4.78,4.78,0,0,1,1.92-.39,6.18,6.18,0,0,1,2.12.42,4.35,4.35,0,0,1,1.9,1.33Z"/><path class="cls-2" d="M60.36,124.75H57.78v8.77H55.61v-8.77H53.86v-2h1.75v-1.41a3.12,3.12,0,0,1,3.25-3.23,2.85,2.85,0,0,1,1.38.31,2.8,2.8,0,0,1,.8.61l-.73,1.64a2,2,0,0,0-.54-.38,1.37,1.37,0,0,0-.66-.18,1.3,1.3,0,0,0-1,.35,1.32,1.32,0,0,0-.29.88v1.41h2.58Z"/><path class="cls-2" d="M72.71,127.84a5.85,5.85,0,0,1-.74,2.95,5.33,5.33,0,0,1-2,2,5.49,5.49,0,0,1-2.82.73,5.55,5.55,0,0,1-2.83-.73,5.29,5.29,0,0,1-2-2,6.25,6.25,0,0,1,0-5.9,5.39,5.39,0,0,1,2-2,5.65,5.65,0,0,1,2.83-.73,5.59,5.59,0,0,1,2.82.73,5.43,5.43,0,0,1,2,2A5.85,5.85,0,0,1,72.71,127.84Zm-2.18,0a4,4,0,0,0-.43-2,3.36,3.36,0,0,0-1.22-1.31,3.28,3.28,0,0,0-1.73-.47,3.3,3.3,0,0,0-3,1.78,4,4,0,0,0-.42,2,3.88,3.88,0,0,0,.42,1.92,3.36,3.36,0,0,0,1.23,1.33,3.25,3.25,0,0,0,1.74.48,3.19,3.19,0,0,0,1.73-.48,3.41,3.41,0,0,0,1.22-1.33A3.88,3.88,0,0,0,70.53,127.84Z"/><path class="cls-2" d="M81.12,124.9a2.51,2.51,0,0,0-.51-.18,2.67,2.67,0,0,0-.64-.07,2.75,2.75,0,0,0-1.31.34,3,3,0,0,0-1.07,1,2.6,2.6,0,0,0-.43,1.51v6H75V122.59h2.17v2.06A4.09,4.09,0,0,1,78.54,123a3.36,3.36,0,0,1,1.95-.64,2.7,2.7,0,0,1,1.19.21Z"/><path class="cls-2" d="M88.92,122.4a3.53,3.53,0,0,1,2.17.61,3.34,3.34,0,0,1,1.16,1.68,4.42,4.42,0,0,1,.86-1,5.13,5.13,0,0,1,1.31-.89,3.78,3.78,0,0,1,1.6-.35,3.54,3.54,0,0,1,2.21.61,3.2,3.2,0,0,1,1.11,1.65,7.52,7.52,0,0,1,.32,2.3v6.56H97.5v-6.44a3.66,3.66,0,0,0-.46-2,1.86,1.86,0,0,0-1.73-.75,2.73,2.73,0,0,0-2,.76,2.46,2.46,0,0,0-.78,1.84v6.54H90.38V127a3.41,3.41,0,0,0-.5-1.91,1.83,1.83,0,0,0-1.65-.75,2.83,2.83,0,0,0-1.41.35,2.66,2.66,0,0,0-1,.93,2.35,2.35,0,0,0-.35,1.28v6.58H83.32V122.59h2.17v1.75a4.9,4.9,0,0,1,1.4-1.35A3.66,3.66,0,0,1,88.92,122.4Z"/><path class="cls-2" d="M112.74,122.38v11.14h-2.16v-1.89a5,5,0,0,1-1.48,1.29,4.25,4.25,0,0,1-2.27.6,4.52,4.52,0,0,1-2.51-.73,5.1,5.1,0,0,1-1.8-2,6.45,6.45,0,0,1-.67-3,6.12,6.12,0,0,1,.69-2.95,5.08,5.08,0,0,1,1.9-2,5.24,5.24,0,0,1,2.74-.72,3.94,3.94,0,0,1,2,.5,4.93,4.93,0,0,1,1.39,1.17v-1.44Zm-5.41,9.16a3.17,3.17,0,0,0,1.75-.48,3.32,3.32,0,0,0,1.17-1.34,4.31,4.31,0,0,0,.41-1.9,4.25,4.25,0,0,0-.41-1.88,3.4,3.4,0,0,0-1.17-1.32,3.17,3.17,0,0,0-1.75-.49,3.1,3.1,0,0,0-1.71.48,3.2,3.2,0,0,0-1.16,1.31,4.51,4.51,0,0,0,0,3.8,3.23,3.23,0,0,0,1.16,1.34A3.1,3.1,0,0,0,107.33,131.54Z"/><path class="cls-2" d="M117.11,127.84a3.8,3.8,0,0,0,.48,1.92,3.71,3.71,0,0,0,1.3,1.34,3.26,3.26,0,0,0,1.71.49,3,3,0,0,0,1.81-.55,6,6,0,0,0,1.25-1.12l1.19,1.46a4.52,4.52,0,0,1-1.08,1.05,6,6,0,0,1-1.56.79,5.68,5.68,0,0,1-1.84.3,5,5,0,0,1-2.7-.75,5.36,5.36,0,0,1-1.91-2,6.36,6.36,0,0,1,0-5.8,5.4,5.4,0,0,1,1.91-2,5,5,0,0,1,2.7-.75,5.79,5.79,0,0,1,2.71.62,4.31,4.31,0,0,1,1.77,1.59l-1.19,1.46a4.06,4.06,0,0,0-1.36-1.22,3.43,3.43,0,0,0-1.72-.51,3.28,3.28,0,0,0-1.77.49,3.55,3.55,0,0,0-1.25,1.33A4,4,0,0,0,117.11,127.84Z"/><path class="cls-2" d="M128,120.21a1.4,1.4,0,0,1-1.08-.37,1.36,1.36,0,0,1-.36-1,1.4,1.4,0,0,1,.36-.94,1.34,1.34,0,0,1,1.08-.41,1.41,1.41,0,0,1,1.08.37,1.36,1.36,0,0,1,.36,1,1.4,1.4,0,0,1-.36.94A1.33,1.33,0,0,1,128,120.21Zm1.1,13.31H127V122.59h2.14Z"/><path class="cls-2" d="M142.62,127.84a5.75,5.75,0,0,1-.74,2.95,5.38,5.38,0,0,1-2,2,5.85,5.85,0,0,1-5.66,0,5.43,5.43,0,0,1-2-2,6.25,6.25,0,0,1,0-5.9,5.53,5.53,0,0,1,2-2,5.85,5.85,0,0,1,5.66,0,5.48,5.48,0,0,1,2,2A5.75,5.75,0,0,1,142.62,127.84Zm-2.18,0a4,4,0,0,0-.43-2,3.27,3.27,0,0,0-2.95-1.78,3.3,3.3,0,0,0-3,1.78,4,4,0,0,0-.43,2,3.88,3.88,0,0,0,.43,1.92,3.36,3.36,0,0,0,1.23,1.33,3.24,3.24,0,0,0,1.73.48,3.19,3.19,0,0,0,1.73-.48,3.34,3.34,0,0,0,1.22-1.33A3.88,3.88,0,0,0,140.44,127.84Zm-3.79-7.31-.71-1.06,3-2.6,1.35,1.7Z"/><path class="cls-2" d="M150.63,122.36a3.78,3.78,0,0,1,2.29.6,3.2,3.2,0,0,1,1.14,1.63,7.64,7.64,0,0,1,.32,2.27v6.66h-2.14V127a4.36,4.36,0,0,0-.21-1.41,1.89,1.89,0,0,0-.71-1,2,2,0,0,0-1.39-.29,3,3,0,0,0-1.48.35,2.8,2.8,0,0,0-1,.94,2.32,2.32,0,0,0-.38,1.29v6.62h-2.14V122.59h2.14v1.73a4.61,4.61,0,0,1,1.46-1.37A4,4,0,0,1,150.63,122.36Z"/><path class="cls-2" d="M169.37,118.94a7.06,7.06,0,0,1,3,.58,5.94,5.94,0,0,1,2.13,1.58,7.08,7.08,0,0,1,1.3,2.33,8.92,8.92,0,0,1,.43,2.8,8.51,8.51,0,0,1-.77,3.66,6.17,6.17,0,0,1-2.29,2.64,6.76,6.76,0,0,1-3.77,1h-5.7V118.94Zm-.1,12.41a4.67,4.67,0,0,0,2.66-.69,4.12,4.12,0,0,0,1.5-1.87,7,7,0,0,0,0-5.1,4.12,4.12,0,0,0-1.5-1.87,4.59,4.59,0,0,0-2.66-.71h-3.35v10.24Z"/><path class="cls-2" d="M180,120.21a1.44,1.44,0,0,1-1.09-.37,1.4,1.4,0,0,1-.35-1,1.44,1.44,0,0,1,.35-.94,1.38,1.38,0,0,1,1.09-.41,1.43,1.43,0,0,1,1.08.37,1.4,1.4,0,0,1,.35,1,1.44,1.44,0,0,1-.35.94A1.34,1.34,0,0,1,180,120.21Zm1.1,13.31H179V122.59h2.14Z"/><path class="cls-2" d="M185.64,135.12a4.74,4.74,0,0,0,1.56.77,5.92,5.92,0,0,0,1.83.29,3.65,3.65,0,0,0,2.58-.82,3.18,3.18,0,0,0,.9-2.47v-1.33a3.8,3.8,0,0,1-.83.95,4.79,4.79,0,0,1-1.27.73,4.4,4.4,0,0,1-1.52.28,5.24,5.24,0,0,1-2.75-.73,5.33,5.33,0,0,1-1.95-2,6.4,6.4,0,0,1,0-5.88,5.18,5.18,0,0,1,1.93-2,5.12,5.12,0,0,1,2.71-.73,4.35,4.35,0,0,1,2.22.55,4.84,4.84,0,0,1,1.47,1.2v-1.52h2.14v10.26a5.71,5.71,0,0,1-.78,3.16,4.55,4.55,0,0,1-2.06,1.75,6.9,6.9,0,0,1-2.78.55,7.74,7.74,0,0,1-2.32-.36,5.59,5.59,0,0,1-1.86-1Zm3.48-11a3.24,3.24,0,0,0-1.78.49,3.29,3.29,0,0,0-1.23,1.33,4.24,4.24,0,0,0,0,3.8,3.33,3.33,0,0,0,1.23,1.32,3.24,3.24,0,0,0,1.78.49,3.41,3.41,0,0,0,1.82-.48,3.28,3.28,0,0,0,1.21-1.32,4,4,0,0,0,.44-1.91,3.93,3.93,0,0,0-.44-1.91,3.28,3.28,0,0,0-1.21-1.32A3.33,3.33,0,0,0,189.12,124.11Z"/><path class="cls-2" d="M198.82,120.21a1.4,1.4,0,0,1-1.08-.37,1.36,1.36,0,0,1-.36-1,1.4,1.4,0,0,1,.36-.94,1.34,1.34,0,0,1,1.08-.41,1.4,1.4,0,0,1,1.08.37,1.36,1.36,0,0,1,.36,1,1.4,1.4,0,0,1-.36.94A1.31,1.31,0,0,1,198.82,120.21Zm1.1,13.31h-2.14V122.59h2.14Z"/><path class="cls-2" d="M206.31,133.52h-2.14v-8.85H201.9v-2.08h2.27V119.8h2.14v2.79h2.54v2.08h-2.54Z"/><path class="cls-2" d="M220.82,122.38v11.14h-2.17v-1.89a4.92,4.92,0,0,1-1.48,1.29,4.25,4.25,0,0,1-2.27.6,4.54,4.54,0,0,1-2.51-.73,5.17,5.17,0,0,1-1.8-2,6.45,6.45,0,0,1-.66-3,6.23,6.23,0,0,1,.68-2.95,5.08,5.08,0,0,1,1.9-2,5.25,5.25,0,0,1,2.75-.72,4,4,0,0,1,2,.5,5,5,0,0,1,1.38,1.17v-1.44Zm-5.42,9.16a3.17,3.17,0,0,0,1.75-.48,3.32,3.32,0,0,0,1.17-1.34,4.18,4.18,0,0,0,.41-1.9,4.12,4.12,0,0,0-.41-1.88,3.4,3.4,0,0,0-1.17-1.32,3.17,3.17,0,0,0-1.75-.49,3,3,0,0,0-1.7.48,3.3,3.3,0,0,0-1.17,1.31,4.51,4.51,0,0,0,0,3.8,3.32,3.32,0,0,0,1.17,1.34A3,3,0,0,0,215.4,131.54Z"/><path class="cls-2" d="M223.73,133.52V118.11h2.14v15.41Z"/><ellipse class="cls-3" cx="85.13" cy="44.14" rx="11.12" ry="11.08"/><rect class="cls-1" x="129.62" y="21.98" width="22.25" height="11.08" rx="5.54"/><path class="cls-1" d="M148.49,42.14a5.66,5.66,0,0,1-.69,2.72,22.21,22.21,0,0,1-1.76,2,27.7,27.7,0,1,1-9.4-44.76c.66.27,1.3.56,1.93.89a5.59,5.59,0,0,1-5.45,9.67,2.2,2.2,0,0,1-.31-.15,17,17,0,0,0-9.34-1.26A16.63,16.63,0,1,0,137.32,39.9h0a15.3,15.3,0,0,0,1.61-1.71,4.87,4.87,0,0,1,3.45-1.82h.07A5.88,5.88,0,0,1,148.49,42.14Z"/></svg>